<svg xmlns="http://www.w3.org/2000/svg" xml:space="preserve" fill-rule="evenodd" stroke-miterlimit="10" clip-rule="evenodd" viewBox="0 0 68.967 60.641">
  <path fill-rule="nonzero" stroke="#fff" stroke-width="1.5" d="M50.023.75H18.944c-.948 0-1.825.506-2.299 1.328L1.105 28.993a2.656 2.656 0 0 0 0 2.655l15.54 26.915a2.654 2.654 0 0 0 2.3 1.328h31.078c.95 0 1.825-.506 2.3-1.328l15.54-26.915a2.656 2.656 0 0 0 0-2.655L52.322 2.078a2.656 2.656 0 0 0-2.3-1.328Z"/>
  <path fill="none" stroke="#fff" stroke-linecap="round" stroke-linejoin="round" stroke-width="1.5" d="m48.512 15.678-2.66 2.65c-.06-.09-.13-.17-.21-.25l-1.9-1.9c-.08-.08-.16-.15-.25-.21l2.65-2.66c.33-.32.75-.49 1.18-.49.43 0 .86.17 1.19.49.65.66.65 1.72 0 2.37z"/>
  <path fill="none" stroke="#fff" stroke-linecap="round" stroke-linejoin="round" stroke-width="1.5" d="m45.642 20.908-2.87 2.87c-.56-.4-1.24-.64-1.98-.64-1.9 0-3.44 1.54-3.44 3.43 0 .74.23 1.43.64 1.99l-4.03 4.03c-.78.78-2.05.78-2.83 0l-1.9-1.9c-.78-.78-.78-2.05 0-2.83l11.68-11.68a2.005 2.005 0 0 1 2.83 0l1.9 1.9a2.006 2.006 0 0 1 0 2.83zm1.71 21.45h-3.51a24.461 24.461 0 0 0-2.75-12.37c1.17-.1 2.17-.79 2.71-1.77.87 1.42 1.77 3.21 2.46 5.37a24.47 24.47 0 0 1 1.09 8.77zm3.67 2v1.51a2 2 0 0 1-2 2h-29.08a2 2 0 0 1-2-2v-1.51a2 2 0 0 1 2-2h29.08a2 2 0 0 1 2 2zm-16.73-4.01v2.01h-11.97v-2.01c0-1.11.89-2 2-2h7.97a2 2 0 0 1 2 2z"/>
  <path fill="none" stroke="#fff" stroke-linecap="round" stroke-linejoin="round" stroke-width="1.5" d="M44.222 26.568c0 .59-.15 1.15-.42 1.64v.01c-.54.98-1.54 1.67-2.71 1.77-.1.02-.2.02-.3.02a3.41 3.41 0 0 1-2.8-1.45c-.41-.56-.64-1.25-.64-1.99 0-1.89 1.54-3.43 3.44-3.43.74 0 1.42.24 1.98.64.88.62 1.45 1.64 1.45 2.79z"/>
</svg>
