<svg xmlns="http://www.w3.org/2000/svg" xmlns:xlink="http://www.w3.org/1999/xlink" xml:space="preserve" fill-rule="evenodd" stroke-miterlimit="10" clip-rule="evenodd" viewBox="0 0 68.97 60.64">
  <defs>
    <path id="a" fill="none" stroke="#fff" stroke-width="1.5" d="M41.99 22.82h-15v15h15z"/>
  </defs>
  <path fill-rule="nonzero" stroke="#fff" stroke-width="1.5" d="M50.02.75H18.94c-.94 0-1.82.5-2.3 1.33L1.12 28.99a2.66 2.66 0 0 0 0 2.66l15.54 26.91a2.65 2.65 0 0 0 2.3 1.33h31.07c.95 0 1.83-.5 2.3-1.33l15.54-26.91c.48-.82.48-1.84 0-2.66L52.32 2.08a2.66 2.66 0 0 0-2.3-1.33Z"/>
  <use xlink:href="#a" stroke-width="1.5"/>
  <path fill="none" stroke="#fff" stroke-linecap="round" stroke-linejoin="round" stroke-width="1.5" d="M51.44 47.28H17.53V13.36h33.9Z"/>
  <use xlink:href="#a" stroke-width="1.5"/>
  <use xlink:href="#a" stroke-width="1.5"/>
  <use xlink:href="#a" stroke-width="1.5"/>
  <path fill="none" stroke="#fff" stroke-width="1.5" d="M23.83 40.97v-21.3h21.3v21.3"/>
  <path fill="none" stroke="#fff" stroke-width="1.5" d="M20.68 44.13V16.52h27.6v27.6m-30.75 3.16 9.45-9.46m15 0 9.46 9.46"/>
</svg>
