<svg xmlns="http://www.w3.org/2000/svg" xml:space="preserve" fill-rule="evenodd" stroke-miterlimit="10" clip-rule="evenodd" viewBox="0 0 68.97 60.64">
  <path fill-rule="nonzero" stroke="#fff" stroke-width="1.5" d="M50.02.75H18.94c-.94 0-1.82.5-2.3 1.33L1.12 28.99a2.66 2.66 0 0 0 0 2.66l15.54 26.91a2.65 2.65 0 0 0 2.3 1.33h31.07c.95 0 1.83-.5 2.3-1.33l15.54-26.91c.48-.82.48-1.84 0-2.66L52.32 2.08a2.66 2.66 0 0 0-2.3-1.33Z"/>
  <path fill="none" stroke="#fff" stroke-linecap="round" stroke-linejoin="round" stroke-width="1.5" d="m34.43 50.68.16.07a28.09 28.09 0 0 0 12.43-10.44 9.98 9.98 0 0 0 1.6-4.82l1.1-16.95a4 4 0 0 0-2.29-3.88A28.74 28.74 0 0 0 34.6 11.9a29.38 29.38 0 0 0-13.03 2.77 4 4 0 0 0-2.3 3.89l1.1 16.91a9.88 9.88 0 0 0 1.55 4.73c1.1 1.69 2.2 2.98 3.1 3.92 0 0 3.73 3.92 9.42 6.56z"/>
  <path fill="none" stroke="#fff" stroke-linecap="round" stroke-linejoin="round" stroke-width="1.5" d="m28.88 34 3.14 1.82.29 2.34h4.35l.29-2.35 3.14-1.8 2.17.92 2.17-3.78-1.88-1.41V26.1l1.88-1.42-2.17-3.77-2.17.92-3.14-1.8-.29-2.35h-4.35l-.29 2.34-3.14 1.81-2.17-.92-2.18 3.77 1.9 1.42v3.63l-1.9 1.41 2.18 3.78z"/>
</svg>
