<svg xmlns="http://www.w3.org/2000/svg" xml:space="preserve" fill-rule="evenodd" clip-rule="evenodd" viewBox="0 0 179.96 202.58">
  <g fill-rule="nonzero">
    <path stroke="#fff" stroke-width="8.33" d="M9.5 48.83a11.28 11.28 0 0 0-5.34 9.23v86.46c0 3.57 2.25 7.45 5.34 9.23l75.15 43.24a11.3 11.3 0 0 0 10.66 0l75.15-43.24a11.28 11.28 0 0 0 5.34-9.23V58.06c0-3.57-2.25-7.45-5.34-9.23L95.31 5.59a11.33 11.33 0 0 0-10.66 0z"/>
    <path fill="#fff" d="M105.41 99.36h-6.86l4.81-12.82c.23-.6.14-1.26-.22-1.78a1.94 1.94 0 0 0-1.58-.83H90.4l7.25-36.28A1.93 1.93 0 0 0 94 46.52l-23.15 54.01a1.92 1.92 0 0 0 1.77 2.69h6.86l-4.8 12.82a1.92 1.92 0 0 0 1.8 2.61h11.15l-7.26 36.28a1.94 1.94 0 0 0 1.9 2.3c.75 0 1.46-.44 1.77-1.16l23.14-54.02a1.93 1.93 0 0 0-1.77-2.69M87.8 137.52l4.08-20.42a1.94 1.94 0 0 0-1.89-2.3H79.26l4.81-12.83a1.92 1.92 0 0 0-1.8-2.61h-6.72l14.7-34.3-4.09 20.42a1.94 1.94 0 0 0 1.9 2.3h10.71l-4.8 12.83a1.93 1.93 0 0 0 1.8 2.6h6.72zm50.4-38.16h-11.57a1.93 1.93 0 1 0 0 3.86h11.58a1.93 1.93 0 1 0 0-3.86m-17.36-13.5c.34 0 .68-.1.99-.28l9.65-5.79a1.93 1.93 0 1 0-2-3.3l-9.64 5.78a1.93 1.93 0 0 0 1 3.59m10.64 36.93-9.65-5.8a1.92 1.92 0 1 0-1.98 3.32l9.64 5.78a1.93 1.93 0 1 0 1.98-3.3m-76.22-21.5c0-1.07-.87-1.93-1.93-1.93H41.75a1.93 1.93 0 1 0 0 3.86h11.58c1.06 0 1.93-.86 1.93-1.93m4.84-19.02-9.64-5.78a1.92 1.92 0 1 0-1.98 3.3l9.64 5.8c.31.18.65.27 1 .27a1.93 1.93 0 0 0 .99-3.59M58.12 117l-9.64 5.79a1.93 1.93 0 1 0 1.99 3.3l9.64-5.78a1.93 1.93 0 0 0-1.99-3.31"/>
  </g>
</svg>
