<svg xmlns="http://www.w3.org/2000/svg" xml:space="preserve" fill-rule="evenodd" stroke-miterlimit="10" clip-rule="evenodd" viewBox="0 0 65 75">
  <path fill="#9aa3ad" stroke="#000" stroke-width="2" d="M63.35 55.16v-36l-31.17-18L1 19.16v36l31.18 18 31.17-18Z"/>
  <path fill="#fff" fill-rule="nonzero" stroke="#000" stroke-width="2" d="M31.66 15.99v42.33H24a8.1 8.1 0 0 1-8.11-8.1v-4.16h-3.57a.96.96 0 0 1-.9-1.3l4.48-11.02-.01-.36c0-9.09 6.9-16.54 15.77-17.4Z"/>
  <path fill="none" stroke="#000" stroke-width="2" d="M31.66 46.23h14.13m-14.13 6.05h8.97m-8.97-18.15h14.13m-15-6.2h4.67l6.05-6.05m-9.85 6.2h19.2"/>
  <circle cx="-2.14" r="2.14" fill="#fff" stroke="#000" stroke-width="2" transform="matrix(-1 0 0 1 39.37 52.28)"/>
  <circle cx="-2.14" r="2.14" fill="#fff" stroke="#000" stroke-width="2" transform="matrix(-1 0 0 1 48.72 28.08)"/>
  <circle cx="-2.14" r="2.14" fill="#fff" stroke="#000" stroke-width="2" transform="matrix(-1 0 0 1 44.04 34.13)"/>
  <circle cx="-2.14" r="2.14" fill="#fff" stroke="#000" stroke-width="2" transform="matrix(-1 0 0 1 44.04 46.23)"/>
  <path fill="none" stroke="#000" stroke-width="2" d="m35.47 46.23 6.05-6.05h10.43"/>
  <circle cx="-2.14" r="2.14" fill="#fff" stroke="#000" stroke-width="2" transform="matrix(-1 0 0 1 39.37 22.03)"/>
  <circle cx="-2.14" r="2.14" fill="#fff" stroke="#000" stroke-width="2" transform="matrix(-1 0 0 1 48.72 40.18)"/>
</svg>
