<svg xmlns="http://www.w3.org/2000/svg" xml:space="preserve" fill-rule="evenodd" stroke-miterlimit="10" clip-rule="evenodd" viewBox="0 0 65 75">
  <path fill="#9aa3ad" fill-rule="nonzero" d="M1 19.16v36l31.18 18 31.17-18v-36l-31.17-18L1 19.16Z"/>
  <g transform="translate(-3.82 -3.35)">
    <clipPath id="a">
      <path d="M4.82 22.5v36L36 76.5l31.18-18v-36L36 4.5l-31.18 18Z"/>
    </clipPath>
    <g clip-path="url(#a)">
      <circle cx="-31.18" r="31.18" fill="#fff" stroke="#000" stroke-width="2" transform="matrix(0 -1 -1 0 36 37.57)"/>
      <path fill="none" stroke="#000" d="M24.97 97.92c-4.87-5.65-8.04-14.94-8.04-25.44 0-10.99 3.48-20.65 8.73-26.2m20.68 0c5.25 5.55 8.73 15.21 8.73 26.2 0 10.5-3.17 19.8-8.04 25.44"/>
      <path fill="none" stroke="#000" d="M60.6 50.43c0 6.51-11.01 11.8-24.6 11.8-13.59 0-24.6-5.29-24.6-11.8m39.37-9.14c0 3.86-6.61 6.98-14.77 6.98s-14.77-3.13-14.77-6.98M36 48.27v51.66"/>
      <path fill="#fff" fill-rule="nonzero" d="M38.38 43.05c.34-7.37 4.36-13.04 6.39-15.33l6.84 1.19-8.32-12.41L27 24.63l5.96 1.03c-1.2 2.34-3.08 7.92-.77 17.39"/>
      <path fill-rule="nonzero" d="m31.58 26.44-4.75-.83-3-.52 2.72-1.36 16.3-8.12.78-.4.5.73 9.6 14.35-2.3-.4-6.31-1.1a26.7 26.7 0 0 0-4.35 6.27 23.56 23.56 0 0 0-2.4 7.99c0-2.82.5-5.68 1.48-8.38a28 28 0 0 1 4.17-7.61l.36-.42.56.1 4.53.78-6.52-9.73-12.78 6.37 4.26.74-.59 1.22A15.67 15.67 0 0 0 32.28 30a23.63 23.63 0 0 0-.69 4.26c-.1 1.45-.08 2.92.02 4.39.1 1.47.32 2.93.57 4.39a41.9 41.9 0 0 1-1.06-4.33 30.72 30.72 0 0 1-.53-4.46c-.06-1.51 0-3.03.22-4.55.16-1.1.4-2.2.77-3.27Z"/>
    </g>
  </g>
  <path fill="none" stroke="#000" stroke-width="2" d="M63.35 55.16v-36l-31.17-18L1 19.16v36l31.18 18 31.17-18Z"/>
</svg>
