<svg xmlns="http://www.w3.org/2000/svg" xml:space="preserve" fill-rule="evenodd" stroke-miterlimit="10" clip-rule="evenodd" viewBox="0 0 268.14 309.62">
  <path fill="#b7c2cf" fill-rule="nonzero" stroke="#231f20" stroke-width="8.33" d="M263.98 229.81v-150l-129.9-75-129.91 75v150l129.9 75z"/>
  <path fill="#231f20" fill-rule="nonzero" d="m182.93 58.97-13.95 41.17.36-1.9 1.16 24.66.07 1.46-.87 1.2-12 16.43-6.74-4.91 12.02-16.44-.8 2.65L161 98.63l-.05-1.18.42-.73zm-97.72 0 21.56 37.75.42.73-.06 1.18-1.16 24.66-.8-2.65 12.01 16.44-6.73 4.91-12-16.44-.87-1.19.07-1.46 1.16-24.66.36 1.9zm97.72 191.68-16.4-39.05c-.24-.41-.2-.8-.2-1.23v-23.84l1.2 2.92-16.18-16.44 5.95-5.84 16.18 16.44 1.2 1.21v25.55l-.2-1.23zm-97.72 0 8.45-41.02-.18 1.24v-26.05l1.2-1.21 16.17-16.44 5.94 5.84-16.18 16.44 1.2-2.92v25.14l-.2.45z"/>
  <path fill="#231f20" fill-rule="nonzero" d="m156.87 152.68 30.69 23.67 1.38 1.07.21 1.73 3.18 26.3-1.43-2.66 24.59 26.51-30-20.18-1.2-.8-.23-1.86-3.18-26.3 1.59 2.8-30.7-23.68z"/>
  <path fill="#fff" fill-rule="nonzero" stroke="#231f20" stroke-width="8.33" d="M154.33 206.54V121l-20.26-11.69-20.25 11.7v85.53l20.25 11.7z"/>
  <path fill="#231f20" fill-rule="nonzero" d="m116.37 159.27-30.7 23.68 1.6-2.8-3.18 26.3-.22 1.86-1.2.81-30.01 20.18 24.59-26.5-1.43 2.66L79 179.15l.2-1.73 1.39-1.07 30.69-23.68z"/>
  <path fill="none" stroke="#231f20" stroke-linecap="round" stroke-linejoin="round" stroke-width="4.17" d="M134.08 218.23v-62.15"/>
  <path fill="none" stroke="#231f20" stroke-width="4.17" d="M154.33 144.4V121l-20.26-11.69-20.25 11.7v23.38l20.25 11.7z"/>
</svg>
