<svg xmlns="http://www.w3.org/2000/svg" xml:space="preserve" fill-rule="evenodd" stroke-miterlimit="10" clip-rule="evenodd" viewBox="0 0 268.1 309.6">
  <path fill="#b7c2cf" fill-rule="nonzero" stroke="#231f20" stroke-width="8.3" d="M264 229.8v-150l-130-75-129.8 75v150l129.9 75z"/>
  <path fill="#fff" stroke="#231f20" stroke-linecap="round" stroke-linejoin="round" stroke-width="8.3" d="m180.8 277.8 83.2-48v-83.5a31.8 31.8 0 0 0-22.4-9h-31.3a27.6 27.6 0 1 0-.4 0h-31.4a32 32 0 0 0-31.9 33.4l2.5 50.2c.7 15.1 13.2 27 28.4 27zM4.2 146.3v83.5l83.1 48 3.3-29.9a28.5 28.5 0 0 0 28.5-27l2.4-50.2a32 32 0 0 0-31.9-33.5H58.3a27.6 27.6 0 1 0-.4 0H26.5c-8.7 0-16.6 3.5-22.3 9.1z"/>
  <path fill="#fff" stroke="#231f20" stroke-linecap="round" stroke-linejoin="round" stroke-width="8.3" d="m74.6 270.5 59.5 34.3 59.4-34.3c.9-2.5 1.4-5.2 1.6-8l2.4-50.2a32 32 0 0 0-31.9-33.4h-31.3a27.6 27.6 0 1 0-.4 0h-31.4a32 32 0 0 0-31.9 33.4l2.5 50.2c.1 2.8.7 5.5 1.5 8z"/>
</svg>
