<svg xmlns="http://www.w3.org/2000/svg" xml:space="preserve" fill-rule="evenodd" stroke-miterlimit="10" clip-rule="evenodd" viewBox="0 0 181.07 209.08">
  <path fill="#b7c2cf" fill-rule="nonzero" stroke="#231f20" stroke-width="5.83" d="M178.15 155.13V53.96L90.54 3.36 2.92 53.97v101.17l87.62 50.58z"/>
  <g fill="none" stroke="#231f20" opacity=".3">
    <path stroke-width="2.92" d="M21.47 83.4h11.24m-5.61 5.63V77.78m37.93 87.39h8.43m-4.21 4.22v-8.44m35.55-7.02h14.05m-7.02 7.02V146.9m21.07-63.5h8.43m-4.21 4.22V79.2m-29.51-39.35h8.43m-4.21 4.21v-8.43"/>
    <path stroke-width="4.33" d="M60.82 52.5h16.86m-8.43 8.42V44.06"/>
    <path stroke-width="2.92" d="M32.71 126.59h11.24m-5.62 5.62v-11.24"/>
    <path stroke-width="4.33" d="M141.33 126.59H161m-9.83 9.84v-19.67"/>
  </g>
  <path fill="#fff" fill-rule="nonzero" stroke="#231f20" stroke-linejoin="round" stroke-width="4.38" d="M101.78 110.86V98.22l-11.24-6.33-11.25 6.33v12.64l11.25 6.33z"/>
  <path fill="none" stroke="#231f20" stroke-linecap="square" stroke-width="4.38" d="M73.68 129.1H66.7c-.8 0-1.46-.65-1.46-1.45v-6.99h.02m42.14-42.14h6.97c.8 0 1.46.65 1.46 1.45v6.98h-.02m-42.13-8.41h-6.96c-.8 0-1.46.65-1.46 1.45v6.96h-.02m42.16 42.12v.02h6.97c.8 0 1.46-.65 1.46-1.45v-6.99h-.02"/>
</svg>
