<svg xmlns="http://www.w3.org/2000/svg" xml:space="preserve" fill-rule="evenodd" stroke-miterlimit="10" clip-rule="evenodd" viewBox="0 0 182.5 210.74">
  <g transform="translate(-443.56 -25.94)">
    <path fill="#b7c2cf" fill-rule="nonzero" stroke="#231f20" stroke-width="5.83" d="M623.15 182.31v-102l-88.33-51-88.34 51v102l88.34 51z"/>
    <path fill="#fff" fill-rule="nonzero" stroke="#231f20" stroke-linejoin="round" stroke-width="4.38" d="M601.02 101.58V88.83l-11.33-6.37-11.33 6.37v12.75l11.33 6.38z"/>
    <path fill="none" stroke="#231f20" stroke-dasharray="17 14.17" stroke-linecap="square" stroke-linejoin="round" stroke-width="4.38" d="M597.62 118.14a65.16 65.16 0 1 1-19.55-34.65"/>
    <g clip-path="url(#a)" transform="translate(-228.19 -473.19) scale(4.16667)">
      <path fill="none" stroke="#231f20" stroke-linecap="square" stroke-width=".7" d="M195.36 145.68c0 2.7-5.48 4.9-12.24 4.9s-12.24-2.2-12.24-4.9m22.44-5.5c0 2.26-4.57 4.08-10.2 4.08-5.63 0-10.2-1.82-10.2-4.08m16.32-3.85c0 1.8-2.74 3.27-6.12 3.27s-6.12-1.46-6.12-3.27"/>
    </g>
    <circle cx="-131.31" cy="-534.82" r="45.9" fill="#231f20" fill-opacity=".3" stroke="#231f20" stroke-width="5.83" transform="matrix(0 -1 -1 0 0 0)"/>
  </g>
  <defs>
    <clipPath id="a" clipPathUnits="userSpaceOnUse">
      <circle cx="-145.08" cy="-183.12" r="11.02" stroke="#000" stroke-width="1.4" transform="matrix(0 -1 -1 0 0 0)"/>
    </clipPath>
  </defs>
</svg>
