<svg style="height: 512px; width: 512px;" xmlns="http://www.w3.org/2000/svg" viewBox="0 0 512 512"><defs><clipPath id="icon-bg"><circle cx="256" cy="256" r="256" fill="#000" fill-opacity="1"></circle></clipPath></defs><circle cx="256" cy="256" r="256" fill="#000" fill-opacity="1"></circle><g class="" style="" clip-path="url(#icon-bg)"><path d="M18 18v109.8l41.97 274L109.4 79.5l31.5 161.9 19.5-78 27.8 161.2 55.4-272.9 54 172.4 14.2-35.2 60.8 289.4 59.2-320.1 24.9 57.3c-2.9 6-7.1 14-5.4 21.1 1.1 4.8 4.7 11.2 9.6 11.1 4.7-.1 7.7-6.5 8.5-11.1 1.4-7.6-3.6-16.2-6.8-22.1l31.4-74.8V18zm170.1 329.2s-10.4 17.8-8.5 27c1 4.8 4.7 11.2 9.6 11.1 4.7-.1 7.8-6.5 8.5-11.1 1.5-9.4-9.6-27-9.6-27z" fill="#fff" fill-opacity="1"  transform="translate(0,-18)"></path></g></svg>