<svg xmlns="http://www.w3.org/2000/svg" xml:space="preserve" fill-rule="evenodd" clip-rule="evenodd" viewBox="0 0 179.96 202.58">
  <g fill-rule="nonzero">
    <path stroke="#fff" stroke-width="8.33" d="M9.5 48.83a11.28 11.28 0 0 0-5.34 9.23v86.46c0 3.57 2.25 7.45 5.34 9.23l75.15 43.24a11.3 11.3 0 0 0 10.66 0l75.15-43.24a11.28 11.28 0 0 0 5.34-9.23V58.06c0-3.57-2.25-7.45-5.34-9.23L95.31 5.59a11.33 11.33 0 0 0-10.66 0z"/>
    <path fill="#fff" d="m87.34 143.66-1.68-.13c-25.62-1.98-45.7-21.63-45.7-44.73 0-24.76 22.44-44.9 50.03-44.9 27.57 0 50.02 20.14 50.02 44.9 0 17.49-9.23 34.28-26.68 48.57a119.63 119.63 0 0 1-26.42 16.38l-3.78 1.6zm1.7 14.6 2.78-1.5a121.2 121.2 0 0 0 19-12.67c16.65-13.68 25.1-28.94 25.1-45.35 0-22.47-20.61-40.76-45.93-40.76-25.33 0-45.92 18.29-45.92 40.76 0 22.48 20.6 40.77 45.92 40.77h2.68z"/>
    <path fill="#fff" d="M84.5 106.68c0-10.42 11.65-11.93 11.65-19.8 0-3.85-3.3-6.8-7.81-6.8-4.32 0-7.81 2.88-7.81 2.88l-3.7-4.73s4.52-4.38 11.99-4.38c7.74 0 14.32 4.93 14.32 12.54 0 11.3-12.13 12.47-12.13 20.7v2.8h-6.5zm-.14 9.87h6.8v6.65h-6.8z"/>
  </g>
</svg>
