<svg xmlns="http://www.w3.org/2000/svg" xml:space="preserve" fill-rule="evenodd" stroke-linecap="round" stroke-miterlimit="10" clip-rule="evenodd" viewBox="0 0 123 111">
  <path fill="none" stroke="#dde1e7" stroke-width="4.2" d="M24.7 61.8a9.8 9.8 0 0 1 .2-11.4"/>
  <path fill="none" stroke="#dde1e7" stroke-linejoin="round" stroke-width="4.2" d="m110.3 66.5-15 9.3a26 26 0 0 1-13.4 3.8H62c-2.4 0-4.7-.7-6.8-2l-14-9.2c-5-3.4-10.8-5.1-16.7-5.1h-1.1c-.6 0-1.1 0-1.6.3l-16 6c-2.4.9-4.2-2.6-2.4-4.7l4.2-5a6 6 0 0 0 0-7.3l-4.2-5c-1.8-2 0-5.5 2.4-4.6l16 6 1.5.3h3.9c4.2 0 8.3-.9 12.2-2.6l22-9.7c2.6-1.1 5.4-1.7 8.2-1.7h11.6c3.6 0 7.2 1 10.4 2.7l19 13a9.3 9.3 0 0 1 3.8 7.6c0 3.3-1.6 6.3-4.1 7.9Z"/>
  <path fill="none" stroke="#dde1e7" stroke-width="4.2" d="M70.2 35.3 50.6 21.9c-1.5-1.3-3.7-.1-3.7 1.9v10.7c0 .8.4 1.5 1 2l5 3.5M35.1 66.5l-3.8 2a2.4 2.4 0 0 0-.4 3.8c4 3.8 6 8.7 6.4 14.8a2.3 2.3 0 0 0 3.6 1.8l15.4-10.5"/>
  <path fill="#dde1e7" fill-rule="nonzero" stroke="#dde1e7" stroke-linejoin="round" stroke-width="4.7" d="M81.8 79.5 71 95.8c-3.1-3.4-3.6-7.6-2.8-12.3.4-2.3 2.3-4 4.6-4h9Z"/>
  <path fill="#dde1e7" fill-rule="nonzero" d="M102.8 54a2.3 2.3 0 1 1 0 4.6 2.3 2.3 0 0 1 0-4.7"/>
  <path fill="none" stroke="#dde1e7" stroke-linecap="butt" stroke-width="4.2" d="M101.5 70.3a16.3 16.3 0 0 1-2.4-26.4"/>
  <path fill="none" stroke="#dde1e7" stroke-linejoin="round" stroke-width="4.2" d="m70.2 65.6 5.4 4.4a5 5 0 0 0 6.7-1.1l4.2-5.6"/>
</svg>
