<svg xmlns="http://www.w3.org/2000/svg" xml:space="preserve" fill-rule="evenodd" stroke-linecap="round" stroke-linejoin="round" stroke-miterlimit="10" clip-rule="evenodd" viewBox="0 0 109 123">
  <path fill="none" stroke="#dde1e7" stroke-width="4.2" d="M46.7 54.7c-3-3.4.8-11 7.8-11s11 7.6 7.8 11m-15.6 0h15.6c1.6 0 11.8 11.2 11.8 23.9 0 12.5-10 26.1-19.6 26.1C45 104.7 35 91.1 35 78.6c0-12.7 10.2-24 11.8-24Zm15.7-6.5 16-8.8v-24l-8.7-13m-23 45.8-16.1-8.8v-24l8.7-13m24 50 19.5-2.1L98 28.5l-4.3-10.8m-48 34.6-19.5-2L11 28.5l4.3-10.8M66.8 59h22.5l17.4 24-6.5 19.5M42.2 59H19.7L2.3 83l6.5 19.5M71 65.8l14 4L91.5 96l-10.9 24M38.1 65.7l-14 4L17.5 96l10.9 24m30.1-75.3 2.5-5.3-2.1-4.3m-8.4 9.6L48 39.4l2.2-4.3"/>
</svg>
