<svg xmlns="http://www.w3.org/2000/svg" xml:space="preserve" fill-rule="evenodd" stroke-miterlimit="10" clip-rule="evenodd" viewBox="0 0 182.338 210.543">
  <defs>
    <clipPath id="a" clipPathUnits="userSpaceOnUse">
      <path d="m408.24 325.047-20.52 11.848-20.521-11.848v-23.694l20.521-11.848 20.52 11.848z"/>
    </clipPath>
  </defs>
  <path fill="#b7c2cf" fill-rule="nonzero" stroke="#231f20" stroke-width="5.667" d="M179.504 156.272v-102l-88.333-51-88.338 51v102l88.338 51Z"/>
  <g clip-path="url(#a)" transform="translate(-1524.33 -1199.73) scale(4.16667)">
    <path fill="#fff" fill-rule="nonzero" stroke="#231f20" stroke-width="1.36" d="M384.774 278.218v39.174h-8.294l-.034-22.385c.075-2.778.667-9.135 5.347-14.191a18.63 18.63 0 0 1 2.981-2.598zm-9.694 39.174h11.093a1.748 1.748 0 0 1 0 3.498H375.08a1.749 1.749 0 1 1 0-3.498zm5.547 19.843a2.149 2.149 0 0 0 2.149-2.149V320.89h-4.298v14.196c0 1.187.962 2.149 2.149 2.149z"/>
    <path fill="none" stroke="#231f20" stroke-width=".68" d="M381.283 317.392V282.13m1.492 45.298h-4.297m4.297-3.269h-4.297m4.297 6.538h-4.297m4.297 3.269h-4.297"/>
    <path fill="#fff" fill-rule="nonzero" stroke="#231f20" stroke-width="1.36" d="M392.574 300.71a2.149 2.149 0 0 0-2.149 2.149v33.295h4.298v-33.295a2.149 2.149 0 0 0-2.149-2.149z"/>
    <path fill="#fff" fill-rule="nonzero" stroke="#231f20" stroke-width="1.36" d="M390.11 304.313c-5.556 0-7.179 1.964-8.161 5.195a6.919 6.919 0 0 0-.288 1.965l12.757.018c1.56.002 3.026.887 3.951 2.383h4.178v-9.561z"/>
    <path fill="#231f20" d="M398.029 304.313h.68v9.561h-.68z"/>
  </g>
</svg>
