<svg xmlns="http://www.w3.org/2000/svg" xmlns:xlink="http://www.w3.org/1999/xlink" xml:space="preserve" fill-rule="evenodd" stroke-miterlimit="10" clip-rule="evenodd" viewBox="0 0 187.5 216.5">
  <defs>
    <path id="a" fill="none" stroke="#fff" stroke-linecap="round" stroke-linejoin="round" stroke-miterlimit="4" stroke-width="3.3" d="M93.8 108.2h0"/>
  </defs>
  <path fill="#707a83" fill-rule="nonzero" d="M184.7 160.7V55.8L93.8 3.4 3 55.8v104.9L93.8 213z"/>
  <path fill="none" stroke="#231f20" stroke-width="5.8" d="M184.6 160.7V55.8L93.7 3.4 3 55.8v104.9L93.7 213z"/>
  <path fill="#231f20" fill-opacity=".3" fill-rule="nonzero" d="M93.8 43.4 37.7 75.8v64.9L93.8 173l56.2-32.4V75.8Z"/>
  <use xlink:href="#a" stroke-linecap="round" stroke-linejoin="round" stroke-miterlimit="4" stroke-width="3.3"/>
  <path fill="none" stroke="#fff" stroke-dasharray="0 10.8" stroke-linecap="round" stroke-linejoin="round" stroke-miterlimit="4" stroke-width="3.3" d="M84.5 113.6 42.4 138"/>
  <path fill="none" stroke="#fff" stroke-linecap="round" stroke-linejoin="round" stroke-miterlimit="4" stroke-width="3.3" d="M37.7 140.7h0"/>
  <path fill="none" stroke="#fff" stroke-dasharray="0 10.8" stroke-linecap="round" stroke-linejoin="round" stroke-miterlimit="4" stroke-width="3.3" d="m47 135.3 42.2-24.4"/>
  <path fill="none" stroke="#fff" stroke-linecap="round" stroke-linejoin="round" stroke-miterlimit="4" stroke-width="3.3" d="M150 140.7h0"/>
  <path fill="none" stroke="#fff" stroke-dasharray="0 10.8" stroke-linecap="round" stroke-linejoin="round" stroke-miterlimit="4" stroke-width="3.3" d="m140.7 135.3-42.2-24.4"/>
  <use xlink:href="#a" stroke-linecap="round" stroke-linejoin="round" stroke-miterlimit="4" stroke-width="3.3"/>
  <path fill="none" stroke="#fff" stroke-dasharray="0 10.8" stroke-linecap="round" stroke-linejoin="round" stroke-miterlimit="4" stroke-width="3.3" d="M93.8 97.4V48.8"/>
  <path fill="none" stroke="#fff" stroke-linecap="round" stroke-linejoin="round" stroke-miterlimit="4" stroke-width="3.3" d="M93.8 43.4h0"/>
  <path fill="none" stroke="#fff" stroke-width="5.8" d="M150 140.7V75.8L93.8 43.4 37.7 75.8v64.9L93.8 173zm-56.2-32.5L150 75.8Z"/>
  <path fill="none" stroke="#fff" stroke-width="5.8" d="m37.7 75.8 56.1 32.4v64.9"/>
</svg>
