<svg xmlns="http://www.w3.org/2000/svg" xml:space="preserve" fill-rule="evenodd" stroke-linejoin="round" stroke-miterlimit="10" clip-rule="evenodd" viewBox="0 0 187.47 216.47">
  <path fill="#ed1a38" fill-rule="nonzero" d="M184.66 160.67V55.8L93.84 3.37 3.02 55.8v104.87l90.82 52.43z"/>
  <g transform="translate(-33.13 127) scale(4.16667)">
    <clipPath id="a">
      <path d="M8.65-17.09V8.08l21.8 12.58 21.8-12.58v-25.17l-21.8-12.58Z" clip-rule="nonzero"/>
    </clipPath>
    <g clip-path="url(#a)">
      <path fill="none" stroke="#fff" stroke-width="1.4" d="m0 4.07 14.93-12.2 4.26 2.73 5.29-5.63 3.07 1.44 4.78-8.77L44.16-7.1l3.08-1.59L60.91 4.75 29.79 22.43z"/>
    </g>
  </g>
  <path fill="#fff" fill-opacity=".3" fill-rule="nonzero" d="m101.57 50.49-19.9 36.55-12.8-5.98-22.04 23.46-17.78-11.36 11.38 19.89-5.69 11.14L73.6 101.9l28.44 11.14 8.53-23.94zm25.59 62.56 23.72 1.65 12.83-23.89Z"/>
  <path fill="none" stroke="#231f20" stroke-linejoin="miter" stroke-width="5.83" d="M184.55 160.67V55.8L93.73 3.37 2.92 55.8v104.87l90.81 52.43z"/>
</svg>
