<svg xmlns="http://www.w3.org/2000/svg" xml:space="preserve" fill-rule="evenodd" clip-rule="evenodd" viewBox="0 0 179.96 202.58">
  <g transform="translate(-13.02 -13.8)">
    <path fill-rule="nonzero" stroke="#fff" stroke-width="8.33" d="M22.52 62.64a11.28 11.28 0 0 0-5.34 9.23v86.45c0 3.57 2.25 7.45 5.34 9.23l75.15 43.24a11.3 11.3 0 0 0 10.65 0l75.16-43.24a11.28 11.28 0 0 0 5.33-9.23V71.87c0-3.57-2.24-7.45-5.33-9.23L108.33 19.4a11.33 11.33 0 0 0-10.66 0z"/>
    <clipPath id="a">
      <path d="M50.38 69.11h105.24v91.97H50.38z" clip-rule="nonzero"/>
    </clipPath>
    <g clip-path="url(#a)">
      <path fill="none" stroke="#fff" stroke-miterlimit="10" stroke-width="4.17" d="M104.31 71.19h-36.9m84.94 21.47a9.87 9.87 0 1 1-19.7 1.45 9.87 9.87 0 0 1 19.7-1.45zM95.8 159.18l25.67-11.51a4.95 4.95 0 0 0 2.42-7.44l-10.43-15.4 8.32-8.63s4.64 8.92 7.06 8.92h13.04c7 0 10.58-7.1 10.58-7.1l-18.34-2.78-9.74-21.87s-9.45-8-13.7-10.83H83.42c1.05 5.68 4.47 7.53 9.39 8.28l13.33 1.94 5.71 7.8-11.82 12.26-.66.85c-5.98 7.5-2.1 13.76 3.78 20.37l6.74 6.97L91.7 151.6m1.26-49.19H73.09m-5.68 0h-5.68m-5.67 0h-5.68m11.35 51.1 32.74-16.59m-3.3-11.8-35.11 22.7"/>
    </g>
  </g>
</svg>
