<svg xmlns="http://www.w3.org/2000/svg" xml:space="preserve" fill-rule="evenodd" clip-rule="evenodd" viewBox="0 0 179.96 202.58">
  <g transform="translate(-13.02 -13.25)">
    <path fill-rule="nonzero" stroke="#fff" stroke-width="8.33" d="M22.52 62.08a11.28 11.28 0 0 0-5.34 9.24v86.45c0 3.57 2.25 7.45 5.34 9.23l75.15 43.24a11.3 11.3 0 0 0 10.65 0L183.49 167a11.28 11.28 0 0 0 5.33-9.23V71.3c0-3.57-2.24-7.45-5.33-9.23l-75.15-43.24a11.33 11.33 0 0 0-10.66 0z"/>
    <clipPath id="a">
      <path d="M64.89 71.52h76.22v86.04H64.89z" clip-rule="nonzero"/>
    </clipPath>
    <g clip-path="url(#a)">
      <path fill="none" stroke="#fff" stroke-miterlimit="10" stroke-width="5.42" d="M71.73 71.52v25h25m-23.75-4.17a37.33 37.33 0 0 1 27.92-12.5 37.5 37.5 0 1 1-33.58 54.17"/>
    </g>
  </g>
</svg>
