<svg xmlns="http://www.w3.org/2000/svg" xml:space="preserve" fill-rule="evenodd" stroke-miterlimit="10" clip-rule="evenodd" viewBox="0 0 187.58 216.59">
  <path fill="#0082bf" fill-rule="nonzero" d="M184.66 160.76V55.83L93.79 3.37 2.92 55.83v104.93l90.87 52.46z"/>
  <g transform="translate(-407.49 -938.62) scale(4.16667)">
    <clipPath id="a">
      <path d="M98.5 238.67v25.18l21.8 12.6 21.82-12.6v-25.18l-21.81-12.6z" clip-rule="nonzero"/>
    </clipPath>
    <g clip-path="url(#a)">
      <path fill="none" stroke="#fff" stroke-width="1.4" d="M156.95 250.43c-5.72-3.46-9.51-3.38-11.94-2.62-3.81 1.19-4.16 4-9.18 6.12-1.05.44-7.75 3.26-11.12.13-1.77-1.65-2.79-5.08-1.26-7.12a4.55 4.55 0 0 1 2.91-1.6c-.36-.55-2.14-3.1-5.24-3.5-2.96-.38-5.22 1.45-5.91 2-4.58 3.71-2.63 7.94-6.33 10.81-4.6 3.6-12.51.6-13.95.06a20.61 20.61 0 0 1-6.19-3.7l-.23 38.05 67.27-.24 1.17-38.39Z"/>
      <path fill="#fff" fill-opacity=".3" fill-rule="nonzero" d="M137.8 253.14c-.53.3-1.14.62-1.83.91-1.06.44-7.75 3.25-11.13.13a5.5 5.5 0 0 1-.85-1.02c2.02.3 4.24-.67 5.37-2.06 1.19-1.46.79-2.82 2.42-4.14a3.02 3.02 0 0 1 2.27-.77 3.01 3.01 0 0 1 2 1.33c-.27.05-.78.2-1.1.62-.61.81.16 2.16.48 2.74.55 1 1.43 1.72 2.37 2.26m-26.62-1.36a6.62 6.62 0 0 1-2.17 3c-1.2.94-7.48 3.09-13.95.05a17.95 17.95 0 0 1-7.44-6.68c4.43 1.14 7.14.42 8.82-.52 1.44-.81 2.23-1.83 5.28-3.55 2.55-1.42 3.51-1.57 4.33-1.47a5.74 5.74 0 0 1 3.83 2.56 3.2 3.2 0 0 0-2.13 1.17c-.11.16-1.06 1.59-.5 3.16.52 1.47 2.14 2.46 3.93 2.28"/>
    </g>
  </g>
  <path fill="none" stroke="#231f20" stroke-width="5.83" d="M184.66 160.76V55.83L93.79 3.37 2.92 55.83v104.93l90.87 52.46z"/>
</svg>
