<svg xmlns="http://www.w3.org/2000/svg" xml:space="preserve" fill-rule="evenodd" stroke-miterlimit="10" clip-rule="evenodd" viewBox="0 0 68.97 60.64">
  <path fill-rule="nonzero" stroke="#fff" stroke-width="1.5" d="M50.02.75H18.94c-.94 0-1.82.5-2.3 1.33L1.12 28.99a2.66 2.66 0 0 0 0 2.66l15.54 26.91a2.65 2.65 0 0 0 2.3 1.33h31.07c.95 0 1.83-.5 2.3-1.33l15.54-26.91c.48-.82.48-1.84 0-2.66L52.32 2.08a2.66 2.66 0 0 0-2.3-1.33Z"/>
  <circle cx="-10.88" r="10.88" fill="none" stroke="#fff" stroke-width="1.5" transform="matrix(0 -1 -1 0 35.03 28.88)"/>
  <circle cx="-6.24" r="6.24" fill="none" stroke="#fff" stroke-width="1.5" transform="matrix(0 -1 -1 0 44.57 12)"/>
  <circle cx="-4.17" r="4.17" fill="none" stroke="#fff" stroke-width="1.5" transform="matrix(0 -1 -1 0 18.33 23.13)"/>
  <path fill="none" stroke="#fff" stroke-linecap="round" stroke-linejoin="round" stroke-width="1.5" d="M35.03 34.33v10.86m-5.43-5.43h10.86m-9.27-3.84 7.68 7.68m-7.68 0 7.68-7.68m3.72-23.6L16.76 23.45m33.98-4.27L45.58 42.4M15.05 29.9l11.3 16.42"/>
</svg>
