<svg xmlns="http://www.w3.org/2000/svg" xml:space="preserve" fill-rule="evenodd" stroke-miterlimit="10" clip-rule="evenodd" viewBox="0 0 39.085998 45.133411">
  <path fill="none" stroke="#000" stroke-width="2" d="M38.086 33.272706v-21.412L19.543 1.1547061 1 11.860706v21.412l18.543 10.706z"/>
  <path fill-rule="nonzero" d="m27.51797 32.271486.008 2.900988 2.878425-1.662943-.008-2.899989zm-.01602-5.116489.009 2.902986 2.879861-1.661936-.008-2.902989zm-.01368-5.113809.008 2.899988 2.879426-1.661949-.009-2.899986zM8.819951 30.86679l2.87875 1.661857.0082-2.90042-2.87825-1.662723zm.01457-5.1135 2.87875 1.661857.0084-2.904884-2.87875-1.661857zM16.837341 11.815323l2.882098 1.664057 2.510935-1.458967-2.882098-1.664057z"/>
  <path fill="none" stroke="#000" d="m.9996 11.860906 18.573 10.706-.03 21.412M19.57301 22.566651 38.085384 11.86102"/>
</svg>
