<svg xmlns="http://www.w3.org/2000/svg" xmlns:svg="http://www.w3.org/2000/svg" fill-rule="evenodd" clip-rule="evenodd" viewBox="0 0 133.02594 132.85994" xml:space="preserve"><path fill-rule="nonzero" stroke="#000" stroke-width="4.16667" d="M21.538347 6.74733411c-8.07917313 0-14.6250117 6.54583857-14.6250117 14.6250117v94.77507582c0 8.07917313 6.54583857 14.62917837 14.6250117 14.62917837h94.77507582c8.07917313 0 14.62917837-6.55000524 14.62917837-14.62917837V21.37234581c0-8.07917313-6.55000524-14.6250117-14.62917837-14.6250117z"/><path fill="#fff" fill-rule="nonzero" stroke="#000" stroke-width="4.16667" d="M16.708347 2.08333411c-8.07917313 0-14.6250117 6.54583857-14.6250117 14.6250117v94.77507582c0 8.07917313 6.54583857 14.62917837 14.6250117 14.62917837h94.77507582c8.07917313 0 14.62917837-6.55000524 14.62917837-14.62917837V16.70834581c0-8.07917313-6.55000524-14.6250117-14.62917837-14.6250117z"/><path fill-rule="nonzero" d="M101.9605467 104.96306633c-.22916685 0-.48750039-.05000004-1.11666756-.19583349l-1.05000084-.75833394-.42083367-.46250037c-6.47083851-6.93333888-13.26667728-13.85417775-19.84168254-20.55001644l-5.31667092-5.416671C70.65218832 73.97137487 63.2105157 66.45053552 63.2105157 66.45053552c-2.58750207-2.57500206-5.15417079-5.15833746-7.72500618-7.74167286-9.40834086-9.4583409-19.12918197-19.22918205-29.35419015-28.42918941l.18333348-.74583393-1.47916785-.46666704c-.26250021-.24583353-.58750047-.50833374-.97083411-.81666732l-.55000044-1.03750083-.11666676-1.25416767.3750003-1.18333428c.71666724-.84166734.86666736-.96250077 1.84166814-1.48333452l1.26666768-.11666676c.60000048.19166682 1.69583469.6250005 2.38750191 1.23750099 1.99166826 1.77083475 3.92083647 3.71666964 5.78750463 5.60000448l1.47916785 1.48750119c22.55001804 22.60001808 43.58753487 43.91253513 64.31255145 65.14588545l.28333356.29583357c1.02916749 1.05416751 2.05416831 2.10416835 3.06250245 3.17916921l.67916721 1.10833422.16250013 1.06250085-.24583353 1.05416751-.6666672.92083407-.96250077.5833338c-.44166702.07083339-.72916725.11250009-1.0000008.11250009"/><path fill-rule="nonzero" d="M106.7445467 67.32720611c-31.89169218-.03333336-61.83754947-.22916685-91.5417399-.59166714l-.29583357-.00416667c-1.50833454-.01666668-3.01666908-.03750003-4.52500362-.08750007l-1.26666768-.30416691-.86666736-.63333384-.56666712-.9166674-.18333348-1.1250009.26666688-1.09166754c.58750047-.7916673.72500058-.92083407 1.55833458-1.43750115l1.27916769-.20416683.63750051.02500002c9.43750755.32916693 19.11668196.416667 28.47502278.5000004l7.65833946.07083339c5.07500406.03750003 15.64584585.08750007 15.64584585.08750007l19.61668236.02916669c10.14167478 0 21.05001684-.0833334 32.18335908-.67083387l.40000032.66250053 1.36250109-.71250057c.35833362-.02500002.90416739-.0833334 1.27083435-.12083343l1.12916757.34583361.97083411.80833398.57083379 1.10000088c.08750007 1.10000088.06666672 1.29583437-.25416687 2.35416855l-.81250065.97500078c-.55833378.2916669-1.63750131.75833394-2.56250205.81250065-2.083335.1250001-4.15000332.14166678-5.89583805.14166678Z"/><path fill-rule="nonzero" d="M24.7404467 104.50136561c-.83750067-.71250057-.96250077-.86666736-1.48333452-1.84166814l-.12083343-1.26250101c.19166682-.60000048.6250005-1.69583469 1.24166766-2.38750191 1.77083475-1.99583493 3.71666964-3.92916981 5.60000448-5.79583797l1.48333452-1.47500118c22.56668472-22.51251801 43.8750351-43.55003484 65.15005212-64.30838478l.21666684-.21250017c1.07916753-1.05000084 2.15833506-2.10416835 3.25833594-3.13333584l1.10833422-.68333388 1.06250085-.16250013 1.05416751.2500002.92083407.6666672.5833338.9583341c.14583345.97500078.13750011 1.1666676-.0833334 2.11666836l-.76250061 1.05000084-.46666704.42916701c-6.91250553 6.45000516-13.82084439 13.23334392-20.5000164 19.79584917l-5.4583377 5.35417095c-3.61250289 3.56250285-11.1250089 11.00417547-11.1250089 11.00417547-2.57083539 2.57500206-5.14167078 5.13333744-7.71250617 7.69583949-9.46667424 9.4166742-19.2500154 19.15001532-28.46252277 29.38752351l-.7500006-.18750015-.4583337 1.46250117c-.22500018.2500002-.48750039.57083379-.82083399.99166746l-1.03750083.55000044-1.25416767.11250009z"/></svg>