<svg style="height: 512px; width: 512px;" xmlns="http://www.w3.org/2000/svg" viewBox="0 0 512 512"><circle cx="256" cy="256" r="256" fill="#000" fill-opacity="1"></circle><g class="" style="" transform="translate(0,0)"><path d="M494 18.02l-101 .103V119h101zm-119 .12l-56.29 12.065-31.01 64.361-101.534-35.952L137 119h238zM18 137v61.63l12.416 31.981L62.575 247H247V137zm247 0v110h229V137zM76.294 322.591L18 332.203V375h101V265H65.317zM137 265v110h238c-48.428-109.932-.057-1.24-48.222-110zM18 393v100.98l199-.236L247 393zm247 0v55.79c66.067 45.222-.134-.028 65.798 44.869L494 493.49V393z" fill="#fff" fill-opacity="1" transform="translate(76.8, 76.8) scale(0.7, 0.7)"></path></g></svg>