<svg xmlns="http://www.w3.org/2000/svg" xml:space="preserve" fill-rule="evenodd" stroke-miterlimit="10" clip-rule="evenodd" viewBox="0 0 65 75">
  <path fill="#9aa3ad" stroke="#000" stroke-width="2" d="M63.35 55.16v-36l-31.17-18L1 19.16v36l31.18 18 31.17-18Z"/>
  <path fill="#fff" stroke="#000" stroke-width="2" d="M52.32 26.79a17.58 17.58 0 0 0-3.88-6.97 20.54 20.54 0 0 0-16.23-6.65 20.54 20.54 0 0 0-16.24 6.66c-.8.9-2.83 3.25-3.87 6.95-.99 3.5-.56 6.39-.23 8.48.23 1.45.65 4.08 1.94 6.8a5.76 5.76 0 0 0-1.77 2.85c-.7 2.86 1.24 5.65 2.8 6.86l.07.04a6.72 6.72 0 0 0 4.34 1.47c.29-.04 1.4-.16 2.28.56.58.47.78 1.08.84 1.28.34 1.04-.15 1.6.06 3.35.04.36.06.54.13.73.26.65.84 1.15 2.14 1.66.9.35 2.43.82 4.53.88h5.95a13.6 13.6 0 0 0 4.54-.88c1.29-.51 1.88-1 2.13-1.66.07-.2.1-.37.14-.73.2-1.75-.29-2.31.05-3.35.06-.2.27-.8.84-1.28.89-.72 2-.6 2.28-.56a6.72 6.72 0 0 0 4.35-1.47l.05-.04c1.58-1.21 3.52-4 2.81-6.86a5.72 5.72 0 0 0-1.76-2.86c1.29-2.7 1.7-5.34 1.93-6.79.33-2.1.76-4.97-.22-8.47Z"/>
  <path fill-rule="nonzero" d="M16.77 35.3c-.25.45-.44.93-.57 1.35-.11.43-.09.82.06.98.07.08.15.11.27.24.13.12.27.34.36.71a3.36 3.36 0 0 1-.33 2.48c-.2.32-.33.5-.5.72-.2.26-.4.46-.6.64l-.64.53-.16.13a.31.31 0 0 0-.09.05l-.23.16a8.06 8.06 0 0 0-1.65 1.8l-1.3-.34c.7-.92 1.32-1.66 2.01-2.33.7-.66 1.49-1.24 1.99-2.07.26-.4.33-.92.18-1.38-.14-.45-.4-.89-.37-1.38.06-.99.85-1.71 1.57-2.3m30.89 0c.72.59 1.5 1.31 1.57 2.3.03.5-.23.93-.37 1.38-.15.46-.08.98.18 1.38.5.83 1.3 1.4 1.99 2.07.7.67 1.3 1.41 2 2.33l-1.28.34a8.06 8.06 0 0 0-1.66-1.8l-.23-.16a.31.31 0 0 0-.09-.05l-.16-.13-.63-.53c-.2-.18-.4-.38-.6-.64a7.1 7.1 0 0 1-.5-.72 3.13 3.13 0 0 1-.41-1.19c-.05-.44-.02-.93.07-1.29.09-.37.23-.6.36-.7.12-.14.2-.17.27-.26.15-.15.17-.54.06-.97-.13-.42-.32-.9-.57-1.36M27.44 46.67c-2 1.59-4.42 1.37-5.16 1.3-1.16-.09-2.4-.24-3.3-1.21-1.34-1.47-1.22-4.17.03-5.66 1.96-2.32 6.28-1.23 8.4.54.49.41 1.69 1.41 1.6 2.73-.07 1.1-.97 1.82-1.57 2.3m7.9 6.13c-.21.17-.45.28-.68.32-.53.1-.79-.44-1.57-.75a2.7 2.7 0 0 0-.88-.21c-.2.02-.52.06-.88.2-.79.32-1.04.87-1.58.76a1.47 1.47 0 0 1-.67-.31 1.5 1.5 0 0 1-.33-1.86c.1-.25.99-2.32 1.81-3.41.4-.57.81-.7.98-.74.18-.04.38-.04.65-.04s.5 0 .69.04c.16.04.58.17.97.74.83 1.09 1.71 3.16 1.82 3.41.33.62.2 1.4-.34 1.85m10.1-6.04c-.9.97-2.13 1.12-3.3 1.22-.74.06-3.16.28-5.15-1.31-.6-.48-1.51-1.2-1.58-2.3-.08-1.32 1.12-2.32 1.61-2.73 2.11-1.77 6.44-2.86 8.39-.54 1.25 1.49 1.37 4.2.03 5.66"/>
</svg>
