<svg xmlns="http://www.w3.org/2000/svg" viewBox="0 0 13.564 13.564">
  <path d="M86.94 133.426a6.788 6.788 0 0 0-6.784 6.781 6.789 6.789 0 0 0 6.783 6.783 6.788 6.788 0 0 0 6.782-6.783 6.788 6.788 0 0 0-6.782-6.781zm0 .705a6.072 6.072 0 0 1 6.076 6.076 6.073 6.073 0 0 1-6.077 6.078 6.072 6.072 0 0 1-6.076-6.078 6.071 6.071 0 0 1 6.076-6.076z" transform="translate(-80.156 -133.426)" fill="#fff"/>
  <path d="M328.59 511.557a.667.667 0 0 0-.635.48l-4.672 15.858a.667.667 0 0 0-.008.05 5.657 5.657 0 0 0-.014 3.912c.006.03.013.06.022.09l4.672 15.856c.194.632 1.09.626 1.277-.008l4.666-15.85c.005-.018.008-.036.012-.055a5.635 5.635 0 0 0-.004-3.957.667.667 0 0 0-.008-.039l-4.666-15.857a.667.667 0 0 0-.643-.48zm0 3.027 3.123 10.604a5.645 5.645 0 0 0-6.246 0zm0 10.992c2.4 0 4.34 1.935 4.34 4.34a4.334 4.334 0 0 1-4.34 4.342 4.33 4.33 0 0 1-4.34-4.342 4.329 4.329 0 0 1 4.34-4.34z" transform="translate(-80.156 -133.426) scale(.26458)" fill="#fff"/>
</svg>
