<svg xmlns="http://www.w3.org/2000/svg" xml:space="preserve" fill-rule="evenodd" stroke-linecap="round" stroke-linejoin="round" stroke-miterlimit="10" clip-rule="evenodd" viewBox="0 0 133 107">
  <path fill="none" stroke="#dde1e7" stroke-width="4.2" d="M102.8 32.8c-3.7-1.3-9-5.2-16.5-2.8a66 66 0 0 0-10.4 4.6c-.5-1-1.2-2-1.8-2.7a10.9 10.9 0 0 0-4.3-17.6L65.9 3l-3.8 11.3a11 11 0 0 0-4.3 17.6 20 20 0 0 0-1.6 2.3c-2.8-1.5-6.1-3-9.5-4.2-7.4-2.4-12.8 1.5-16.4 2.8 0 0-19.3 8.2-27.5 8.2.2 7.8 6.4 14.7 14.7 12.8 0 7.8 10.5 11.7 18.5 7.8 4 6.2 13.9 6.4 18.5 1.8.6 1.6 1.3 3 2.2 4.4l-9.5 19.1c-4.2 7.6 5.2 13.5 9.3 6.6-.6 6.4 4 11.7 9.4 11.2 5.3-.4 8.9-6.4 8.5-10.7 4.4 5 12.6-.2 8.8-7l-8.6-18.3a24 24 0 0 0 3-5.8h.5c4.3 5.1 14.8 5.2 19-1.3 8 4 18.3 1 18.5-7.8 8.2 1.8 14.4-5 14.6-12.8-8.2 0-27.4-8.2-27.4-8.2Z"/>
</svg>
