<svg xmlns="http://www.w3.org/2000/svg" xml:space="preserve" fill-rule="evenodd" stroke-miterlimit="10" clip-rule="evenodd" viewBox="0 0 68.967 60.641">
  <path fill-rule="nonzero" stroke="#fff" stroke-width="1.5" d="M50.023.75H18.944c-.948 0-1.825.506-2.299 1.328L1.105 28.993a2.656 2.656 0 0 0 0 2.655l15.54 26.915a2.654 2.654 0 0 0 2.3 1.328h31.078c.95 0 1.825-.506 2.3-1.328l15.54-26.915a2.656 2.656 0 0 0 0-2.655L52.322 2.078a2.656 2.656 0 0 0-2.3-1.328Z"/>
  <path fill="none" stroke="#fff" stroke-linecap="round" stroke-linejoin="round" stroke-width="1.5" d="M14.2 24.137 34.482 6.761l20.284 17.376"/>
  <circle cx="-3.212" r="3.212" fill="none" stroke="#fff" stroke-linecap="round" stroke-linejoin="round" stroke-width="1.5" transform="matrix(0 -1 -1 0 34.484 17.173)"/>
  <path fill="none" stroke="#fff" stroke-linecap="round" stroke-linejoin="round" stroke-width="1.5" d="M34.484 24.898h4.568a4.03 4.03 0 0 1 4.029 4.029v7.247a2.011 2.011 0 0 1-4.023 0v-6.521"/>
  <path fill="none" stroke="#fff" stroke-linecap="round" stroke-linejoin="round" stroke-width="1.5" d="M34.484 40.59v11.002a2.287 2.287 0 0 0 4.574 0V32.666m-4.574-7.768H29.92a4.034 4.034 0 0 0-4.034 4.034v7.242a2.011 2.011 0 0 0 4.023 0v-6.521"/>
  <path fill="none" stroke="#fff" stroke-linecap="round" stroke-linejoin="round" stroke-width="1.5" d="M34.484 40.59v11.002a2.287 2.287 0 0 1-4.574 0V32.665"/>
</svg>
