<svg xmlns="http://www.w3.org/2000/svg" xml:space="preserve" fill-rule="evenodd" stroke-miterlimit="10" clip-rule="evenodd" viewBox="0 0 68.97 60.64">
  <path fill-rule="nonzero" stroke="#fff" stroke-width="1.5" d="M50.02.75H18.94c-.94 0-1.82.5-2.3 1.33L1.12 28.99a2.66 2.66 0 0 0 0 2.66l15.54 26.91a2.65 2.65 0 0 0 2.3 1.33h31.07c.95 0 1.83-.5 2.3-1.33l15.54-26.91c.48-.82.48-1.84 0-2.66L52.32 2.08a2.66 2.66 0 0 0-2.3-1.33Z"/>
  <path fill="none" stroke="#fff" stroke-width="1.5" d="M44.1 25.35v-11.1l-9.62-5.54-9.6 5.54v11.1l9.6 5.54zm-9.62-5.55 9.61-5.55Z"/>
  <path fill="none" stroke="#fff" stroke-width="1.5" d="m24.88 14.25 9.6 5.55v11.1m0 11.1V30.9l-9.6-5.55-9.61 5.55V42l9.6 5.54zm-9.6-5.55 9.6-5.55Z"/>
  <path fill="none" stroke="#fff" stroke-width="1.5" d="m15.27 30.9 9.6 5.55v11.1m28.83-5.56V30.9l-9.6-5.55-9.62 5.55V42l9.61 5.54zm-9.6-5.54 9.6-5.55Z"/>
  <path fill="none" stroke="#fff" stroke-width="1.5" d="m34.48 30.9 9.61 5.55v11.1"/>
</svg>
