<svg xmlns="http://www.w3.org/2000/svg" xml:space="preserve" fill-rule="evenodd" stroke-miterlimit="2" clip-rule="evenodd" viewBox="0 0 266.75 308.43">
  <path fill="#b7c2cf" fill-rule="nonzero" stroke="#231f20" stroke-width="8.42" d="M4.2 228.89V79.54L133.39 4.86l129.16 74.68v149.35l-129.16 74.68Z"/>
  <path fill="#fff" stroke="#231f20" stroke-miterlimit="10" stroke-width="8.33" d="m136.6 68.73-9.1-22.6-43.48 11.63 3.43 24.17-26.49 26.48L36.8 105l-11.65 43.5 22.61 9.08 9.7 36.22-15.05 19.19 31.86 31.86 19.2-15.07 36.2 9.72 9.09 22.6 10.87-2.91 21.75-5.85 10.88-2.92-3.43-24.13 26.49-26.48 24.13 3.42 11.66-43.47-22.59-9.1-9.72-36.2 15.05-19.2L192 63.4l-19.18 15.03-36.22-9.7zm-26.33 72.18v26.4l22.85 13.19 22.85-13.2v-26.39l-22.85-13.2Z"/>
  <path fill="none" stroke="#231f20" stroke-miterlimit="10" stroke-width="4.17" d="m177.98 142.4 13.7-13.7-3.93-14.71 25.49-25.5"/>
  <circle cx="-1.16" cy="-1.16" r="1.63" fill="#fff" stroke="#231f20" stroke-miterlimit="10" transform="matrix(-4.16667 0 0 4.16667 173.16 147.21)"/>
  <path fill="none" stroke="#231f20" stroke-miterlimit="10" stroke-width="4.17" d="m146.72 111.14 13.7-13.7 14.71 3.93 25.5-25.5"/>
  <circle cx="-1.16" cy="-1.16" r="1.63" fill="#fff" stroke="#231f20" stroke-miterlimit="10" transform="matrix(-4.16667 0 0 4.16667 141.9 115.96)"/>
  <path fill="none" stroke="#231f20" stroke-miterlimit="10" stroke-width="4.17" d="m209.46 79.65-35.76 35.77"/>
  <circle cx="1.16" cy="1.16" r="1.63" fill="#fff" stroke="#231f20" stroke-miterlimit="10" transform="matrix(-4.16667 0 0 4.16667 175.57 113.55)"/>
  <path fill="none" stroke="#231f20" stroke-miterlimit="10" stroke-width="4.17" d="m90.67 167.2-13.71 13.7 3.94 14.7-25.5 25.5"/>
  <circle cx="1.16" cy="1.16" r="1.63" fill="#fff" stroke="#231f20" stroke-miterlimit="10" transform="scale(4.16667 -4.16667) rotate(-45 -38.37 -44.36)"/>
  <path fill="none" stroke="#231f20" stroke-miterlimit="10" stroke-width="4.17" d="m121.92 198.45-13.7 13.71-14.71-3.94-25.5 25.5"/>
  <circle cx="1.16" cy="1.16" r="1.63" fill="#fff" stroke="#231f20" stroke-miterlimit="10" transform="matrix(-4.16667 0 0 4.16667 126.74 193.64)"/>
  <path fill="none" stroke="#231f20" stroke-miterlimit="10" stroke-width="4.17" d="m59.17 229.94 35.77-35.77"/>
  <circle cx="-1.16" cy="-1.16" r="1.63" fill="#fff" stroke="#231f20" stroke-miterlimit="10" transform="scale(-4.16667 4.16667) rotate(-45 44.47 49.33)"/>
</svg>
