<svg xmlns="http://www.w3.org/2000/svg" xml:space="preserve" fill-rule="evenodd" stroke-linejoin="round" stroke-miterlimit="2" clip-rule="evenodd" viewBox="0 0 185 185">
  <path fill-rule="nonzero" d="M92.498 168.028 50.44 143.743l-19.467 9.903v14.345l-15.384 8.883L.2 167.991v-17.767l15.387-8.883 12.42 7.172 18.31-11.91V88.037l42.052-24.28 1.156-21.814-12.413-7.167V17.008L92.5 8.126l15.386 8.882v17.768l-12.43 7.175 1.16 21.8 42.065 24.287v48.566l18.304 11.907 12.42-7.17 15.393 8.884v17.766l-15.392 8.884-15.387-8.884v-14.349l-19.462-9.898zm30.41-26.218 8.273-4.777V92.369L92.498 70.032 53.82 92.367v44.666l8.392 4.847-.221-4.55c-.434-8.775 6.566-16.125 15.35-16.125h30.428c8.789 0 15.789 7.35 15.359 16.126zm-17.069-37.049c0 7.334-5.945 13.284-13.282 13.284-7.335 0-13.285-5.95-13.285-13.284 0-7.333 5.95-13.283 13.284-13.283 7.338 0 13.284 5.95 13.284 13.283z"/>
</svg>
