<svg xmlns="http://www.w3.org/2000/svg" xml:space="preserve" fill-rule="evenodd" stroke-linecap="round" stroke-linejoin="round" stroke-miterlimit="10" clip-rule="evenodd" viewBox="0 0 168 168">
  <circle cx="-19.197" r="19.197" fill="none" stroke="#000" stroke-width="1.8" transform="matrix(0 -4.16667 -4.16667 0 83.735 3.752)"/>
  <path fill-rule="nonzero" d="M83.731 98.235c-8.008 0-14.492-6.487-14.492-14.492 0-8.008 6.484-14.5 14.492-14.5 8.008.005 14.496 6.492 14.496 14.5 0 8.005-6.488 14.492-14.496 14.492m.004-64.967L94.023 68.19c-2.959-1.958-6.488-3.116-10.292-3.116-3.804 0-7.33 1.158-10.287 3.112l10.291-34.917Zm17.492 44.175c-.008-.125.02-.254-.017-.379L85.84 24.881a2.194 2.194 0 0 0-4.209 0L66.256 77.064c-.037.125-.008.254-.02.384-.713 1.979-1.167 4.075-1.167 6.295 0 2.217.454 4.321 1.17 6.3.013.125-.016.255.017.375l15.37 52.18a2.194 2.194 0 0 0 4.208 0l15.376-52.18c.038-.12.009-.25.017-.375.717-1.979 1.175-4.083 1.175-6.3 0-2.22-.458-4.32-1.175-6.3"/>
</svg>
