<svg xmlns="http://www.w3.org/2000/svg" xml:space="preserve" fill-rule="evenodd" stroke-miterlimit="10" clip-rule="evenodd" viewBox="0 0 65 75">
  <path fill="#9aa3ad" fill-rule="nonzero" d="M1.094 19.155v36l31.131 17.973 31.129-17.973v-36L32.225 1.182 1.094 19.155Z"/>
  <g transform="translate(-3.8229 -3.3453)">
    <clipPath id="a">
      <path d="M4.823 22.5v36L36 76.5l31.177-18v-36L36 4.5Z"/>
    </clipPath>
    <g clip-path="url(#a)">
      <circle cx="-31.177" r="31.177" fill="#fff" stroke="#000" stroke-width="2" transform="matrix(0 -1 -1 0 36.0438 37.5622)"/>
      <path fill="none" stroke="#000" d="M25.013 97.909c-4.867-5.649-8.043-14.937-8.043-25.438 0-10.992 3.48-20.656 8.739-26.208m20.67.001c5.258 5.551 8.739 15.214 8.739 26.207 0 10.5-3.176 19.788-8.043 25.438"/>
      <path fill="none" stroke="#000" d="M60.65 50.417c0 6.515-11.017 11.797-24.606 11.797-13.59 0-24.607-5.282-24.607-11.797m39.379-9.139c0 3.855-6.614 6.981-14.773 6.981-8.158 0-14.772-3.126-14.772-6.981m14.773 6.982v51.656"/>
      <path fill="#fff" fill-rule="nonzero" stroke="#000" stroke-width="2" d="M51.5369 22.9153c-.986-.619-4.529-2.679-8.271-1.486-.985.314-2.974.948-3.489 2.714-.396 1.355.222 2.879 1.227 3.747 1.358 1.173 3.134.9 3.942.776 4.119-.634 6.263-5.05 6.591-5.751z"/>
      <path fill="#fff" fill-rule="nonzero" stroke="#000" stroke-miterlimit="2" stroke-width="2" d="M31.216 26.665c.875 1.237.775 2.523.775 2.523-.13 1.679-1.49 2.634-1.618 2.721-1.245.844-2.633.622-3.296.517-4.093-.653-6.286-5.986-6.526-6.591 4.96-1.446 9.25-1.17 10.665.83"/>
      <path fill-rule="nonzero" d="M33.7969 31.4953c.82-1.843 2.056-3.505 3.617-4.796a13.11 13.11 0 0 1 1.618-1.146c.261-.21.601-.282.914-.384.319-.094.638-.179.959-.247 1.28-.279 2.568-.373 3.813-.25-1.183.396-2.283.924-3.259 1.583-.244.163-.479.337-.706.516-.231.175-.429.392-.692.497-.481.289-.939.613-1.37.97-1.614 1.334-2.823 3.144-3.481 5.141.666 1.081 1.16 2.269 1.473 3.491.378 1.468.507 2.979.372 4.503-.049.55-.534.956-1.084.908-.55-.049-.957-.535-.908-1.085l.001-.012c.226-2.543-.438-5.204-1.905-7.284-.363-.524-.774-1.017-1.231-1.463-.227-.224-.465-.437-.712-.64-.281-.158-.473-.431-.703-.67-.908-.972-2.038-1.779-3.306-2.449 1.44.024 2.897.386 4.3.989.347.154.719.298.977.583.294.241.577.495.847.762.16.156.315.317.466.483z"/>
    </g>
  </g>
  <path fill="none" stroke="#000" stroke-width="2" d="M63.354 55.155v-36l-31.177-18L1 19.155v36l31.177 18 31.177-18Z"/>
</svg>
