<svg xmlns="http://www.w3.org/2000/svg" xml:space="preserve" fill-rule="evenodd" stroke-miterlimit="10" clip-rule="evenodd" viewBox="0 0 65 75">
  <path fill="#9aa3ad" stroke="#000" stroke-width="2" d="M63.35 55.16v-36l-31.17-18L1 19.16v36l31.18 18 31.17-18Z"/>
  <path fill-rule="nonzero" d="m1 38.98 5.63.66L1 38.36v.62Zm62.35 0v-.63l-5.66 1.3 5.66-.68Zm-6.83-3.6 6.83-2.04v-.82l-6.83 2.85ZM1 33.34l6.8 2.02L1 32.54v.81Zm0-7.54v1.23l8.7 4.32L1 25.81Zm62.35 1.21v-1.23l-8.74 5.57 8.74-4.34ZM1 19.16v.27l11.3 8.31-10.13-9.26-1.17.68Zm51.02 8.58 11.33-8.33v-.25l-1.19-.7-10.14 9.28Zm5.33-12.05-1.15-.67-7.38 9.6 8.53-8.93Zm-49.22-.65-1.15.66 8.51 8.91-7.36-9.57Zm4.61-2.66 6.46 9.7-5.37-10.33-1.09.63Zm32.38 9.7 6.47-9.72-1.1-.63-5.37 10.35Zm-.41-13.69-3.69 11.82 4.85-11.15-1.16-.67Zm-26.26.69L23.3 20.2 19.62 8.4l-1.16.67Zm18.21 9.99 3.19-13.49-1.4-.8-1.79 14.29ZM24.47 5.6l3.19 13.47-1.79-14.28-1.4.81Zm8.6-3.92-.9-.52-.93.54.92 16.98.92-17Z"/>
  <path fill="#6c7279" fill-rule="nonzero" stroke="#000" stroke-linecap="round" stroke-linejoin="round" stroke-width="2" d="m49.32 29.15-17.17 9.93-17.17-9.93v26.98l17.17 9.93h0l17.17-9.93V29.15Z"/>
  <path fill="#9aa3ad" stroke="#000" stroke-width="1.5" d="M39.22 32.15a49.94 49.94 0 0 0-7.07 6.01 45 45 0 0 0-13.7-9.93v26.98a50.61 50.61 0 0 1 13.7 9.93 49.03 49.03 0 0 1 13.7-9.93V28.23c-2 .99-4.27 2.27-6.63 3.92Z"/>
  <path fill="#fff" fill-rule="nonzero" stroke="#000" d="M42.31 26.54a18.54 18.54 0 0 0-10.16 9.92v26.98a29.05 29.05 0 0 1 10.16-9.92V26.54Zm-20.33 0a20.83 20.83 0 0 1 10.17 9.92v26.98a26.72 26.72 0 0 0-10.17-9.92V26.54Z"/>
</svg>
