<svg xmlns="http://www.w3.org/2000/svg" xml:space="preserve" fill-rule="evenodd" stroke-miterlimit="10" clip-rule="evenodd" viewBox="0 0 65 75">
  <path fill="#9aa3ad" fill-rule="nonzero" d="M63.35 55.16v-36l-31.17-18L1 19.16v36l31.18 18 31.17-18Z"/>
  <g transform="translate(-3.82 -3.35)">
    <clipPath id="a">
      <path d="M4.82 22.5v36L36 76.5l31.18-18v-36L36 4.5l-31.18 18Z"/>
    </clipPath>
    <g stroke="#000" clip-path="url(#a)">
      <path fill="#fff" fill-rule="nonzero" stroke-width="2" d="M59.47.7 20.13 40.04l8.33 8.33 22.51-22.45c2.72-2.86 8.5-9.84 8.88-19.62.08-2.04-.08-3.92-.38-5.6ZM30.44 50.36l-12.3-12.3a1.66 1.66 0 0 0-2.35 0l-1.16 1.16c-.65.65-.65 1.7 0 2.35l12.3 12.3c.65.65 1.7.65 2.35 0l1.16-1.16c.65-.65.65-1.7 0-2.35Z"/>
      <path fill="#9aa3ad" stroke-width="2" d="m22.94 49.88-4.32-4.32L5.47 58.71l4.32 4.31 13.15-13.14Z"/>
      <path fill="none" d="M23.63 43.55 59.05 8.13M15.34 48.85l4.31 4.31m-7.6-1.03 4.31 4.32m-7.6-1.03 4.32 4.32"/>
      <path fill="#fff" fill-rule="nonzero" stroke-width="2" d="m12.53.64 39.34 39.34-8.33 8.33-22.51-22.44c-2.72-2.87-8.5-9.85-8.89-19.63-.07-2.03.1-3.91.39-5.6ZM41.56 50.3 53.86 38c.65-.65 1.7-.65 2.35 0l1.16 1.16c.65.65.65 1.7 0 2.35l-12.3 12.3c-.65.65-1.7.65-2.35 0l-1.16-1.16a1.66 1.66 0 0 1 0-2.35Z"/>
      <path fill="#9aa3ad" stroke-width="2" d="m62.21 62.97 4.32-4.32L53.38 45.5l-4.32 4.32 13.15 13.15Z"/>
      <path fill="none" d="M48.37 43.49 12.95 8.08m43.72 40.71-4.32 4.32m7.6-1.03-4.31 4.31m7.6-1.03-4.32 4.32"/>
    </g>
  </g>
  <path fill="none" stroke="#000" stroke-width="2" d="M63.35 55.16v-36l-31.17-18L1 19.16v36l31.18 18 31.17-18Z"/>
</svg>
