<svg xmlns="http://www.w3.org/2000/svg" xml:space="preserve" fill-rule="evenodd" stroke-miterlimit="10" clip-rule="evenodd" viewBox="0 0 64.35 74.31">
  <path fill="#9aa3ad" fill-rule="nonzero" stroke="#000" stroke-width="2" d="M63.35 55.15v-36l-31.17-18L1 19.15v36l31.18 18z"/>
  <path fill="#fff" fill-rule="nonzero" stroke="#000" stroke-width="2" d="M48.68 25.72h-25.7v2.14H8.99c0 7 13.99 7.18 13.99 7.18v1.16h3.58a3.31 3.31 0 1 1 0 6.63h-.02l-3.56 2.82v2.94h5.09l.61-.86h14.1l.62.86h5.1v-2.94l-3.57-2.82a3.39 3.39 0 0 1-3.38-3.33 3.4 3.4 0 0 1 3.05-3.3h1.8v-1.16h1.78l3.84-3.07h3.34v-3.43z"/>
  <path d="M23.98 25.72h-1V36.2h1zm2.56 17.1h18.4v1h-18.4zm18.87-17.1h1v9.32h-1z"/>
</svg>
