<svg xmlns="http://www.w3.org/2000/svg" xml:space="preserve" fill-rule="evenodd" stroke-miterlimit="10" clip-rule="evenodd" viewBox="0 0 65 75">
  <path fill="#9aa3ad" stroke="#000" stroke-width="2" d="M63.35 55.16v-36l-31.17-18L1 19.16v36l31.18 18 31.17-18Z"/>
  <path fill-rule="nonzero" d="m32.18 58.52.9 14.11-.9.53-.91-.53.9-14.11Zm-6.56 10.85 1.4.8 1.37-11.98-2.77 11.18Zm11.72.8 1.4-.8-2.77-11.18 1.37 11.98Zm6.43-3.7-4.13-9.24 2.98 9.9 1.15-.67Zm-23.19 0 1.15.66 2.98-9.9-4.13 9.23Zm26.9-2.15 1.08-.62-5.47-8.05 4.4 8.67ZM15.8 63.7l1.07.62 4.4-8.67-5.47 8.05Zm37.6-2.8-7.19-7.38 6.05 8.04 1.14-.66Zm-35.26-7.38-7.19 7.38 1.14.66 6.05-8.04Zm-12.4 4.37 1.36.79 8.35-7.8-9.72 7Zm51.51.79 1.37-.8-9.72-7 8.35 7.8ZM1 53.78v1.38l.55.31 11.72-7.63L1 53.78Zm61.8 1.7.55-.32v-1.38l-12.27-5.95 11.73 7.64Zm.55-6.45v-1.51L52.7 44.46l10.66 4.57ZM1 47.52v1.51l10.66-4.57L1 47.52Zm62.35-5.6-9.67-1.05 9.67 2.3V41.9ZM1 41.91v1.25l9.68-2.3L1 41.9Zm53-4.77 9.35.6v-1.18l-9.34.59Zm-53 .6 9.35-.6L1 36.57v1.17Zm62.35-5.35v-1.26l-9.67 2.3 9.67-1.04ZM1 32.4l9.68 1.05L1 31.14v1.25Zm51.7-2.55 10.65-3.06v-1.51L52.7 29.85ZM1 26.79l10.66 3.06L1 25.28v1.51Zm0-7.64v1.38l12.27 5.94-11.72-7.63-.55.31Zm62.35 0-.54-.31-11.73 7.63 12.27-5.94v-1.38ZM5.73 16.42l9.72 7-8.35-7.79-1.37.8Zm43.17 7 9.72-7-1.37-.79-8.35 7.8ZM10.95 13.41l7.2 7.38-6.06-8.04-1.14.66Zm41.31-.66-6.05 8.04 7.2-7.38-1.15-.66ZM15.8 10.61l5.46 8.05-4.39-8.67-1.07.62Zm27.3 8.05 5.46-8.05-1.08-.62-4.39 8.67ZM20.57 7.85l4.13 9.23-2.98-9.9-1.14.67Zm22.04-.67-2.98 9.9 4.13-9.23-1.15-.67Zm-17-2.24 2.77 11.18L27 4.14l-1.39.8Zm10.35 11.18 2.76-11.18-1.39-.8-1.37 11.98Zm-3.8-14.97.91.53-.9 14.11-.91-14.11.9-.52Z"/>
  <path fill="#fff" fill-rule="nonzero" d="M32.2 47.33c8.93 0 13.45-3.7 19.21-9.63-5.76-5.93-10.28-9.63-19.2-9.63-8.93 0-13.45 3.7-19.2 9.63 5.75 5.94 10.27 9.63 19.2 9.63"/>
  <g transform="matrix(-1.00001 0 0 1.00001 35.1 49.28)">
    <clipPath id="a">
      <path d="M2.89-1.95c-8.93 0-13.45-3.69-19.2-9.62 5.75-5.94 10.27-9.63 19.2-9.63 8.92 0 13.44 3.7 19.2 9.63-5.76 5.93-10.28 9.63-19.2 9.63" clip-rule="nonzero"/>
    </clipPath>
    <g clip-path="url(#a)">
      <circle cx="2.89" cy="-11.57" r="11.93" fill="#6c7279" stroke="#000"/>
    </g>
  </g>
  <path fill-rule="nonzero" d="m32.02 40.84-2.95 1.55a.28.28 0 0 1-.4-.29l.56-3.28a.27.27 0 0 0-.08-.24l-2.38-2.33a.28.28 0 0 1 .15-.47l3.3-.48a.28.28 0 0 0 .2-.15l1.48-2.99c.1-.2.4-.2.5 0l1.47 2.99c.04.08.12.14.2.15l3.3.48c.23.03.32.31.16.47l-2.39 2.33a.27.27 0 0 0-.08.24l.57 3.28c.03.23-.2.4-.4.3l-2.95-1.56a.28.28 0 0 0-.26 0"/>
  <path fill="none" stroke="#000" stroke-width="2" d="M32.2 47.33c8.93 0 13.45-3.7 19.21-9.63-5.76-5.93-10.28-9.63-19.2-9.63-8.93 0-13.45 3.7-19.2 9.63 5.75 5.94 10.27 9.63 19.2 9.63Z"/>
</svg>
