<svg xmlns="http://www.w3.org/2000/svg" xml:space="preserve" fill-rule="evenodd" stroke-linejoin="round" stroke-miterlimit="2" clip-rule="evenodd" viewBox="0 0 172 195">
  <path d="M148.18 101.92 111.37 62.3a4.18 4.18 0 0 0-6.1 0l-36.82 39.62a4.18 4.18 0 0 0 .02 5.7l36.81 38.96a4.16 4.16 0 0 0 6.06 0l36.81-38.96a4.18 4.18 0 0 0 .03-5.7Zm-4.8 4.2c-.11-.54-.53-.98-1.2-1.27l-8.05-3.53c-1-.38-2.06-.57-3.13-.55-1.17 0-2.3.2-3.09.54l-15 6.47a5.38 5.38 0 0 0-2.93 4.47v28.56c0 .76.18 1.04.23 1.07.12 0 .44-.14.9-.62l31.67-33.53c.5-.52.7-1.1.6-1.63v.01Zm-39.67 1.66-15-6.47a8.1 8.1 0 0 0-3.08-.54c-1.18 0-2.32.2-3.13.55l-8.07 3.53c-.66.3-1.08.74-1.19 1.26-.1.53.1 1.11.6 1.63l31.67 33.51c.46.5.78.62.9.62.05-.03.23-.3.23-1.07v-28.55a5.37 5.37 0 0 0-2.93-4.47Zm-28.08 14.16L73 119.16l-6.89 7.29c-.46.48-.78.62-.9.62-.05-.03-.23-.31-.23-1.07v-15.32l-3.09-3.28-.25-.29V126c0 .77-.18 1.04-.23 1.07-.12 0-.44-.12-.9-.62L28.84 92.93c-.5-.52-.7-1.1-.6-1.63.11-.52.53-.97 1.2-1.26l8.06-3.53a8.27 8.27 0 0 1 3.13-.55c1.06-.02 2.1.16 3.08.54l15 6.47a5.37 5.37 0 0 1 2.93 4.47v4.92l.23-.27 3.11-3.35v-1.3a5.37 5.37 0 0 1 2.93-4.47l4.07-1.76 4.67-5.02-10.22 4.4v.02c-.8.35-1.94.55-3.12.55a8.1 8.1 0 0 1-3.1-.55l-15-6.47a2.28 2.28 0 0 1-1.36-1.44 2.32 2.32 0 0 1 .34-1.94L61.94 53.9c.4-.58.87-.9 1.37-.9.5 0 .98.32 1.38.9l17.44 26.4 1.66-1.79-13.37-20.2L86.5 75.59l2.99-3.22-23.12-24.88a4.18 4.18 0 0 0-6.1 0L23.45 87.1a4.18 4.18 0 0 0 .02 5.7l36.81 38.96a4.16 4.16 0 0 0 6.06 0l9.29-9.83Zm35.8-16.53 14.99-6.47a2.3 2.3 0 0 0 1.35-1.44c.2-.63.07-1.32-.34-1.94l-17.74-26.84c-.4-.59-.88-.9-1.38-.9-.5 0-.98.31-1.37.9L89.19 95.56c-.4.62-.53 1.3-.34 1.94.19.64.67 1.15 1.36 1.44l15 6.47c.8.35 1.93.55 3.1.55 1.18 0 2.31-.2 3.11-.55h.01Zm-29.6-6.45c1.74-.76 4.1-2.74 5.14-4.32l14.24-21.54-27.2 29.3 7.82-3.44Zm52.96 0 7.83 3.42-27.2-29.27 14.23 21.52a14.24 14.24 0 0 0 5.14 4.33ZM36.83 84.15c1.74-.76 4.1-2.74 5.14-4.32l14.24-21.54-27.2 29.29 7.82-3.43Z"/>
</svg>
