<svg xmlns="http://www.w3.org/2000/svg" xml:space="preserve" fill-rule="evenodd" clip-rule="evenodd" viewBox="0 0 171.64 194.07">
  <path fill-rule="nonzero" d="M101.25 95.1h-6.86l4.81-12.82c.23-.6.14-1.26-.22-1.78a1.94 1.94 0 0 0-1.58-.83H86.24l7.25-36.28a1.93 1.93 0 0 0-3.65-1.13L66.69 96.27a1.92 1.92 0 0 0 1.77 2.7h6.86l-4.8 12.81a1.92 1.92 0 0 0 1.8 2.61h11.15l-7.26 36.28a1.94 1.94 0 0 0 1.9 2.3c.75 0 1.46-.44 1.77-1.16l23.14-54.02a1.93 1.93 0 0 0-1.77-2.69m-17.61 38.16 4.08-20.42a1.94 1.94 0 0 0-1.89-2.3H75.1l4.81-12.83a1.92 1.92 0 0 0-1.8-2.6h-6.72l14.7-34.3L82 81.21a1.94 1.94 0 0 0 1.9 2.3h10.71l-4.8 12.83a1.93 1.93 0 0 0 1.8 2.6h6.72zm50.4-38.16h-11.57a1.93 1.93 0 1 0 0 3.86h11.58a1.93 1.93 0 1 0 0-3.86m-17.36-13.5c.34 0 .68-.1.99-.28l9.65-5.79a1.93 1.93 0 1 0-2-3.3l-9.64 5.78a1.93 1.93 0 0 0 1 3.6m10.64 36.92-9.65-5.8a1.93 1.93 0 1 0-1.98 3.32l9.64 5.78a1.93 1.93 0 1 0 1.98-3.3M51.1 97.03c0-1.07-.87-1.93-1.93-1.93H37.59a1.93 1.93 0 1 0 0 3.86h11.58c1.06 0 1.93-.86 1.93-1.93m4.84-19.02-9.64-5.78a1.92 1.92 0 1 0-1.98 3.3l9.64 5.8c.31.18.65.27 1 .27a1.93 1.93 0 0 0 .99-3.59m-1.99 34.73-9.64 5.8a1.93 1.93 0 1 0 1.99 3.3l9.64-5.79a1.93 1.93 0 0 0-1.99-3.3"/>
</svg>
