<svg xmlns="http://www.w3.org/2000/svg" xml:space="preserve" fill-rule="evenodd" clip-rule="evenodd" viewBox="0 0 179.96 202.58">
  <g transform="translate(-13.02 -13.03)">
    <path fill-rule="nonzero" stroke="#fff" stroke-width="8.33" d="M22.52 61.86a11.28 11.28 0 0 0-5.34 9.23v86.46a11.3 11.3 0 0 0 5.34 9.23L97.67 210a11.3 11.3 0 0 0 10.65 0l75.16-43.23a11.28 11.28 0 0 0 5.33-9.23V71.09c0-3.57-2.24-7.45-5.33-9.23l-75.15-43.24a11.33 11.33 0 0 0-10.66 0z"/>
    <clipPath id="a">
      <path d="M61.33 59.99h83.33v108.66H61.33z" clip-rule="nonzero"/>
    </clipPath>
    <g clip-path="url(#a)">
      <path fill="none" stroke="#fff" stroke-miterlimit="10" stroke-width="5.42" d="M61.33 114.32h83.33m-59.34 32.83L103 164.82l17.67-17.67M85.32 81.49 103 63.82l17.67 17.67M103 67.44v34.38m0 25v38"/>
    </g>
  </g>
</svg>
