<svg xmlns="http://www.w3.org/2000/svg" xml:space="preserve" fill-rule="evenodd" stroke-miterlimit="10" clip-rule="evenodd" viewBox="0 0 187.47 216.47">
  <path fill="#90278f" fill-rule="nonzero" d="M184.66 160.67V55.8L93.84 3.37 3.02 55.8v104.87l90.82 52.43z"/>
  <path fill="none" stroke="#231f20" stroke-width="5.83" d="M184.55 160.67V55.8L93.73 3.37 2.92 55.8v104.87l90.81 52.43z"/>
  <path fill="none" stroke="#fff" stroke-width="5.83" d="M166.1 120.85c0 5.95-4.8 10.78-10.75 10.78H90.63a14.31 14.31 0 0 0-15.3-14.07 21.94 21.94 0 0 0-18.11-15.17c.34-.32.72-.62 1.13-.88a10.74 10.74 0 0 1 11.19-13.66 33 33 0 0 1 31.25-22.31 33 33 0 0 1 31.52 23.13c.5-.06 1.02-.06 1.52-.06a21.5 21.5 0 0 1 21.52 21.5c5.95 0 10.75 4.8 10.75 10.74z"/>
  <path fill="#fff" fill-opacity=".3" fill-rule="nonzero" d="M90.63 131.63v.18c0 7.9-6.41 14.3-14.3 14.3h-43.9a11 11 0 0 1 0-21.97 21.96 21.96 0 0 1 42.9-6.58c.33-.03.67-.06 1-.06 7.83 0 14.21 6.32 14.3 14.13"/>
  <path fill="none" stroke="#fff" stroke-width="5.83" d="M90.63 131.63v.18c0 7.9-6.41 14.3-14.3 14.3h-43.9a11 11 0 0 1 0-21.97 21.96 21.96 0 0 1 42.9-6.58c.33-.03.67-.06 1-.06 7.83 0 14.21 6.32 14.3 14.13z"/>
  <path fill="none" stroke="#fff" stroke-linecap="round" stroke-linejoin="round" stroke-width="5.83" d="M103.63 131.62h20.4c6.82.63 12.17 4.23 13.42 9.04.16.59 1.18 4.5-1.29 7.49-2.06 2.5-5.83 3.44-9.55 2.32"/>
  <path fill="none" stroke="#fff" stroke-linecap="round" stroke-linejoin="round" stroke-width="2.92" d="M103.63 125.33h14.7c4.92-.46 8.77-3.05 9.67-6.51.12-.43.85-3.25-.92-5.4-1.5-1.8-4.2-2.48-6.9-1.67m-22.08 26.6h8.8c2.93.28 5.24 1.83 5.78 3.9.06.25.5 1.94-.56 3.23-.89 1.08-2.51 1.48-4.12 1"/>
</svg>
