<svg xmlns="http://www.w3.org/2000/svg" xml:space="preserve" fill-rule="evenodd" stroke-miterlimit="10" clip-rule="evenodd" viewBox="0 0 187.47 216.47">
  <path fill="#121b21" fill-rule="nonzero" stroke="#121b21" stroke-width="5.83" d="M184.55 160.66V55.8L93.73 3.37 2.92 55.8v104.86l90.81 52.44z"/>
  <path fill="none" stroke="#fff" stroke-width="3.33" d="M18.15 87.5h12.2m-6.11 6.1V81.4"/>
  <path fill="none" stroke="#fff" stroke-width="2.5" d="M65.4 176.21h9.15m-4.57 4.58v-9.15"/>
  <path fill="none" stroke="#fff" stroke-width="3.33" d="M108.56 164.02h15.24m-7.62 7.62V156.4"/>
  <path fill="none" stroke="#fff" stroke-width="2.5" d="M139.05 64.2h9.14m-4.57 4.58v-9.15M111.6 40.25h9.15m-4.57 4.57v-9.15"/>
  <path fill="none" stroke="#fff" stroke-width="3.33" d="M60.83 53.97h18.3m-9.15 9.15v-18.3"/>
  <path fill="none" stroke="#fff" stroke-width="2.5" d="M30.34 157.66h12.2m-6.1 6.1v-12.2"/>
  <path fill="none" stroke="#fff" stroke-width="3.33" d="M148.2 134.36h21.33m-10.67 10.67V123.7"/>
  <circle cx="-1.21" cy="-.32" r="1.25" fill="none" stroke="#fff" stroke-width=".8" transform="scale(-4.16666 4.16666) rotate(-75 4.33 25.47)"/>
  <ellipse cx="-8.09" cy="-2.17" fill="none" stroke="#fff" stroke-width=".8" rx="2.27" ry="8.37" transform="scale(-4.16667 4.16667) rotate(-75 2.51 20.62)"/>
  <ellipse cx="-13.82" cy="-3.7" fill="none" stroke="#fff" stroke-width=".8" rx="3.88" ry="14.31" transform="scale(-4.16667 4.16667) rotate(-75 .91 16.45)"/>
  <ellipse cx="-19.28" cy="-5.17" fill="none" stroke="#fff" stroke-width=".8" rx="5.41" ry="19.96" transform="scale(-4.16667 4.16667) rotate(-75 -.6 12.5)"/>
</svg>
