<svg xmlns="http://www.w3.org/2000/svg" xml:space="preserve" fill-rule="evenodd" stroke-miterlimit="10" clip-rule="evenodd" viewBox="0 0 206.19 111.99">
  <path fill="#121b21" fill-rule="nonzero" d="M2.2 26.35A4.89 4.89 0 0 0 0 30.17v51.65c0 1.4 1 3.12 2.2 3.82l44.74 25.83c1.2.7 3.2.7 4.4 0l44.74-25.83a4.9 4.9 0 0 0 2.2-3.82V30.17c0-1.4-1-3.12-2.2-3.82L51.35.52a4.9 4.9 0 0 0-4.41 0z"/>
  <path fill="none" stroke="#ce242b" stroke-width="7.08" d="M12.69 34.95v42.1l36.45 21.04L85.6 77.04v-42.1L49.14 13.9z"/>
  <path fill="#fff" fill-rule="nonzero" d="M48.8 62.8 37.33 74.27a.47.47 0 0 1-.66 0l-5.8-5.8a.47.47 0 0 1 0-.66l11.49-11.5a.47.47 0 0 0 0-.66l-11.5-11.48a.48.48 0 0 1 0-.67l5.8-5.8a.46.46 0 0 1 .67 0l11.48 11.5c.18.18.48.18.66 0l11.49-11.48a.47.47 0 0 1 .67 0l5.79 5.79c.18.18.18.49 0 .67L55.94 55.66a.47.47 0 0 0 0 .67l11.48 11.49c.18.18.18.48 0 .66l-5.8 5.8a.48.48 0 0 1-.66 0L49.47 62.79a.47.47 0 0 0-.66 0"/>
  <path fill="#121b21" fill-rule="nonzero" d="M110.11 26.35a4.89 4.89 0 0 0-2.2 3.82v51.65c0 1.4.99 3.12 2.2 3.82l44.73 25.83c1.21.7 3.2.7 4.41 0l44.73-25.83a4.9 4.9 0 0 0 2.21-3.82V30.17c0-1.4-1-3.12-2.2-3.82L159.24.52c-1.21-.7-3.2-.7-4.4 0z"/>
  <path fill="none" stroke="#ce242b" stroke-width="7.08" d="M120.59 34.95v42.1l36.45 21.04 36.46-21.05v-42.1L157.04 13.9z"/>
  <path fill="#fff" fill-rule="nonzero" d="m156.71 62.8-11.48 11.48a.47.47 0 0 1-.67 0l-5.8-5.8a.47.47 0 0 1 0-.66l11.5-11.5a.47.47 0 0 0 0-.66l-11.5-11.48a.48.48 0 0 1 0-.67l5.8-5.8a.46.46 0 0 1 .67 0L156.7 49.2c.19.18.48.18.67 0l11.48-11.48a.47.47 0 0 1 .68 0l5.79 5.79c.18.18.18.49 0 .67l-11.49 11.48a.47.47 0 0 0 0 .67l11.49 11.49c.18.18.18.48 0 .66l-5.8 5.8a.48.48 0 0 1-.67 0l-11.48-11.49a.47.47 0 0 0-.67 0"/>
</svg>
