<svg xmlns="http://www.w3.org/2000/svg" xml:space="preserve" fill-rule="evenodd" stroke-linecap="round" stroke-linejoin="round" stroke-miterlimit="10" clip-rule="evenodd" viewBox="0 0 103 124">
  <path fill="none" stroke="#dde1e7" stroke-width="4.17" d="M56.162 2.451c25.337 0-4.646 35.559 20.958 34.504 11.454-.475 23.458 7.867 23.458 22.6 0 19.034-12.72 13.775-12.72 26.355 0 12.579 7.27 32.983-7.938 32.983-11.596 0-13.575-6.625-19.625-6.625-6.05 0-10.729 8.783-21.5 8.783-15.6 0-10.925-15.362-14.542-19.766-3.612-4.405-21.804 4.391-21.804-10.98 0-16.533 9.084-14.279 9.084-24.162s-5.45-10.242-5.45-19.767c0-19.766 18.575-8.471 27.65-19.525 9.075-11.054 7.179-24.4 22.429-24.4Zm17.483 56.992a8.734 8.734 0 0 1 8.733 8.737 8.734 8.734 0 1 1-17.466 0 8.731 8.731 0 0 1 8.733-8.737ZM44.008 39.555a7.32 7.32 0 0 1 7.325 7.325 7.32 7.32 0 0 1-7.325 7.325 7.326 7.326 0 1 1 0-14.65Zm-2.38 28.625c6.167 0 11.171 4.996 11.171 11.163 0 6.171-5.004 11.171-11.171 11.171-6.166 0-11.166-5-11.166-11.171 0-6.167 5-11.163 11.166-11.163Z"/>
</svg>
