<svg xmlns="http://www.w3.org/2000/svg" xml:space="preserve" fill-rule="evenodd" stroke-linecap="round" stroke-linejoin="round" stroke-miterlimit="10" clip-rule="evenodd" viewBox="0 0 81 108">
  <path fill="none" stroke="#dde1e7" stroke-width="4.17" d="M49.135 10.944c0 4.821-3.908 8.729-8.725 8.729-4.821 0-8.733-3.908-8.733-8.729s3.912-8.729 8.733-8.729c4.817 0 8.725 3.908 8.725 8.729ZM27.948 59.598V45.635c0-3.466-.992-6.412-2.38-7.491l-.012.012-5.333-3.437s-4.209-2.229-7.684-4.863c-3.154-2.396-7.196-9.333-9.466-13.904 0 0-.396-.8-.721-1.821-.404-1.266.383-2.675 1.525-3.525a3.833 3.833 0 0 1 5.358.792l.113.154s3.07 4.504 4.866 6.679c1.392 1.679 5.509 3.521 6.938 3.929 3.641 1.03 8.179 3.434 11.221 4.6 2.558.913 5.337 1.292 8.141 1.242 2.804.05 5.584-.329 8.146-1.242 3.038-1.166 7.575-3.57 11.217-4.6 1.425-.408 5.546-2.25 6.937-3.929 1.796-2.175 4.867-6.679 4.867-6.679l.112-.154a3.834 3.834 0 0 1 5.359-.792c1.141.85 1.929 2.259 1.525 3.525-.325 1.021-.717 1.821-.717 1.821-2.279 4.571-6.317 11.508-9.471 13.904-3.479 2.634-7.679 4.863-7.679 4.863l-5.337 3.437-.013-.012c-1.387 1.079-2.383 4.025-2.383 7.491v13.963m-25.129 0s-9.171 17.658-11.975 22.758c-2.8 5.092-4.588 12.229-6.117 16.054-1.525 3.821 2.042 6.625 5.608 6.625 3.563 0 4.567-2.416 5.225-4.779.738-2.629 4.813-13.758 4.813-13.758l14.904-22.567m12.671-4.333s8.962 17.658 11.762 22.758c2.804 5.092 4.588 12.229 6.117 16.054 1.529 3.821-2.038 6.625-5.604 6.625-3.567 0-4.567-2.416-5.229-4.779-.734-2.629-4.809-13.758-4.809-13.758L40.41 63.931"/>
</svg>
