<svg xmlns="http://www.w3.org/2000/svg" xml:space="preserve" fill-rule="evenodd" stroke-linecap="round" stroke-linejoin="round" stroke-miterlimit="10" clip-rule="evenodd" viewBox="0 0 99 99">
  <path fill="none" stroke="#dde1e7" stroke-width="4.2" d="M79 2.6c1.3 0 5.2 5.7 5.2 12.1 0 8-7.4 14-12.1 14-3.7 0-7-6.3-7-12.2 0-8.7 10.9-14 14-14ZM44.3 20c1.5 0 10.4 6.2 10.4 15.6 0 9.3-3.9 13.9-10.4 13.9-7 0-10.4-5.1-10.4-12.2 0-6.2 7.3-17.3 10.4-17.3ZM14.8 40.8c4.5 0 13.9 12 13.9 20.8 0 6.3-6 12.2-10.4 12.2-5.6 0-14-2.8-14-10.4 0-5.1 6.7-22.6 10.5-22.6Zm81.6-5.2c0-1.6-7-3.5-10.4-3.5-3.5 0-10.4 2.4-10.4 8.7 0 4.8 3.9 7 8.6 7 5 0 12.2-7.7 12.2-12.2ZM84.2 59.9c0-2-7-5.2-13.8-5.2-5.8 0-14 5.2-14 10.4s6 7 14 7c6 0 13.8-6.4 13.8-12.2ZM67 87.7c0-1.9-9.8-12.2-17.4-12.2-8.2 0-13.9 6-13.9 8.7 0 4.6 3.6 12.1 12.2 12.1 9.7 0 19-4.5 19-8.6Zm8.7-71.2s-1.2 7.2-3.5 12.1C65.7 45 41 71 2.6 96.3M44.3 36s.8 23-3.4 31.1m-24.4-3.6S22 79.6 14.8 88m32.8 0s-14.9-7.7-25.9-5.2m47-19.4S50.1 65 39.1 68.5m45-27.7s-17 2-23.8 6.2"/>
</svg>
