<svg xmlns="http://www.w3.org/2000/svg" xml:space="preserve" fill-rule="evenodd" stroke-miterlimit="2" clip-rule="evenodd" viewBox="0 0 266.75 308.426">
  <path fill="#b7c2cf" fill-rule="nonzero" stroke="#231f20" stroke-width="8.417" d="M4.208 228.89V79.536L133.375 4.861l129.167 74.675V228.89l-129.167 74.675Z"/>
  <path fill="#fff" fill-rule="nonzero" stroke="#231f20" stroke-miterlimit="10" stroke-width="8.333" d="m203.276 184.949-32.867-18.975-20.366-11.759 20.366-11.762 32.867-18.975c9.67-5.583 22.15-2.146 27.963 7.254l10.47-39.067L202.643 81.2c5.687 9.85 2.15 22.158-7.7 27.846l-32.867 18.975-20.367 11.758v-61.47c0-11.163 9.213-20.255 20.263-20.593L133.376 29.12l-28.6 28.595c11.375 0 20.267 9.221 20.267 20.592v61.471l-20.371-11.758-32.867-18.975c-9.67-5.584-12.933-18.109-7.7-27.846L25.043 91.665l10.466 39.067c5.684-9.85 18.113-12.942 27.963-7.254l32.866 18.975 20.371 11.762-20.37 11.759-32.867 18.975c-9.671 5.583-22.15 2.146-27.963-7.254L25.043 216.76l39.062 10.467c-5.687-9.85-2.15-22.158 7.7-27.846l32.867-18.975 20.37-11.758v61.47c0 11.163-9.216 20.255-20.266 20.592l28.6 28.596 28.596-28.596c-11.375 0-20.263-9.22-20.263-20.591v-61.471l20.367 11.758 32.867 18.975c9.67 5.584 12.933 18.109 7.7 27.846l39.066-10.467s-10.47-39.066-10.47-39.062c-5.684 9.846-18.113 12.937-27.963 7.25Z"/>
  <path fill="#fff" fill-rule="nonzero" stroke="#231f20" stroke-miterlimit="10" stroke-width="8.333" d="M155.292 116.25h-43.837l-21.917 37.963 21.917 37.963h43.837l21.917-37.963z"/>
</svg>
