<svg xmlns="http://www.w3.org/2000/svg" xmlns:svg="http://www.w3.org/2000/svg" viewBox="0 0 12.366504 13.114513"><defs><clipPath id="a" clipPathUnits="userSpaceOnUse"><path d="M0 0h432v648H0Z"/></clipPath></defs><g clip-path="url(#a)" transform="matrix(.35278 0 0 -.35278 -96.1108412 186.02691)"><path d="m307.0187 509.8044-15.744 16.947c-.337.362-.81.569-1.305.569-.495 0-.968-.206-1.305-.569l-15.748-16.947c-.639-.688-.635-1.753.01-2.436l15.746-16.665c.336-.357.805-.558 1.295-.558.49 0 .958.201 1.295.558l15.746 16.665c.644.683.649 1.748.01 2.436"/><path fill="#d0ddea" d="m291.2992 508.3097 6.414 2.768c.294.127.5.346.58.617.081.27.028.566-.148.832l-7.589 11.478c-.167.253-.375.392-.587.392-.212 0-.42-.139-.587-.392l-7.59-11.478c-.176-.266-.229-.562-.148-.833.08-.27.286-.489.579-.616l6.414-2.768c.343-.148.828-.233 1.331-.233s.988.085 1.331.233"/><path fill="#acb6c1" d="M304.9663 508.0108c-.046.226-.226.418-.508.541l-3.449 1.509c-.345.151-.833.237-1.339.237-.498 0-.978-.084-1.318-.231l-6.414-2.768c-.681-.294-1.257-1.169-1.257-1.912l-.001-12.214c0-.326.08-.446.101-.46l-.001.002c.05 0 .188.056.386.265l13.544 14.335c.211.223.302.47.256.696"/><path fill="#b7c2cf" d="m301.2952 511.07 3.347-1.464-11.634 12.522 6.088-9.208c.448-.677 1.455-1.525 2.199-1.85"/><path fill="#acb6c1" d="m287.9984 507.2988-6.414 2.768c-.34.147-.82.231-1.318.231-.506 0-.994-.086-1.339-.237l-3.451-1.509c-.281-.124-.462-.316-.508-.541-.045-.226.045-.473.256-.696l13.545-14.335c.197-.209.335-.265.385-.265h.004c.017.012.096.132.096.458l.001 12.215c0 .742-.576 1.617-1.257 1.911"/><path fill="#b7c2cf" d="M278.6418 511.0702c.744.325 1.751 1.172 2.199 1.85l6.09 9.209-11.638-12.524Z"/></g></svg>