<svg xmlns="http://www.w3.org/2000/svg" xml:space="preserve" fill-rule="evenodd" stroke-linejoin="round" stroke-miterlimit="2" clip-rule="evenodd" viewBox="0 0 65 75">
  <path fill="#9aa3ad" fill-rule="nonzero" stroke="#000" stroke-width="2" d="M63.448 55.155v-36l-31.177-18-31.177 18v36l31.177 18 31.177-18Z"/>
  <path fill="#fff" fill-rule="nonzero" stroke="#000" stroke-linejoin="miter" stroke-width="2" d="M54.06 39.23a67.292 67.292 0 0 1-10.784 14.503c-.177.177-.348.354-.522.528a67.104 67.104 0 0 1-10.682 8.684 66.206 66.206 0 0 1-9.405-7.666A67.066 67.066 0 0 1 10.393 38.92c-3.491-6.533-1.027-14.664 5.506-18.155 5.623-3.005 12.425-1.604 16.442 3.007 4.076-4.544 10.888-5.853 16.46-2.773 6.486 3.583 8.842 11.745 5.259 18.231"/>
  <path fill="#b9bdc2" fill-rule="nonzero" stroke="#000" stroke-linejoin="miter" d="M29.848 50.724v-7.202h-7.24v-4.846h7.24v-7.278h4.846v7.278h7.24v4.846h-7.24v7.202h-4.846Z"/>
</svg>
