<svg xmlns="http://www.w3.org/2000/svg" xml:space="preserve" fill-rule="evenodd" stroke-miterlimit="10" clip-rule="evenodd" viewBox="0 0 268.142 309.623">
  <defs>
    <clipPath id="a" clipPathUnits="userSpaceOnUse">
      <path fill-rule="nonzero" stroke-width="4.167" d="M172.183 243.583c47.812 0 72.016-19.787 102.879-51.583-30.863-31.796-55.067-51.583-102.88-51.583-47.812 0-72.016 19.787-102.879 51.583 30.863 31.796 55.067 51.583 102.88 51.583"/>
    </clipPath>
  </defs>
  <path fill="#b7c2cf" fill-rule="nonzero" stroke="#231f20" stroke-width="8.333" d="M4.167 229.811v-150l129.904-75 129.904 75v150l-129.904 75z"/>
  <g clip-path="url(#a)" transform="translate(-37.708 -37.063)">
    <path fill="#231f20" fill-opacity=".3" fill-rule="nonzero" d="M171.778 243.459c47.813 0 72.017-19.788 102.88-51.584-30.863-31.795-55.067-51.583-102.88-51.583-47.813 0-72.017 19.788-102.88 51.583 30.863 31.796 55.067 51.584 102.88 51.584"/>
    <circle cx="-120.254" cy="227.731" r="63.904" fill="#fff" stroke="#231f20" stroke-width="4.167" transform="scale(-1 1) rotate(14)"/>
    <path fill="#231f20" fill-rule="nonzero" d="M192.918 206.764c-1.404 1.55-3.388 1.788-5.258 1.95-1.18.113-5.046.446-8.23-2.095-.958-.767-2.412-1.917-2.52-3.675-.13-2.109 1.77-3.688 2.57-4.359 3.371-2.829 10.292-4.57 13.405-.862 2 2.379 2.191 6.708.033 9.041m-16.12 9.667c-.322.27-.705.433-1.072.513-.846.158-1.262-.721-2.508-1.217a5.356 5.356 0 0 0-1.408-.333 5.21 5.21 0 0 0-1.405.333c-1.262.496-1.662 1.375-2.525 1.217a2.473 2.473 0 0 1-1.07-.513c-.863-.72-1.055-1.983-.525-2.97.158-.4 1.579-3.692 2.891-5.45.638-.91 1.292-1.117 1.55-1.167.3-.063.621-.08 1.054-.08.43 0 .784 0 1.1.08.259.05.93.258 1.55 1.166 1.33 1.759 2.734 5.05 2.909 5.45.529.988.32 2.25-.542 2.971m-12.608-9.812c-3.18 2.541-7.063 2.208-8.246 2.095-1.85-.162-3.85-.4-5.254-1.95-2.159-2.333-1.967-6.662.033-9.041 3.13-3.709 10.033-1.967 13.404.862.8.671 2.717 2.25 2.571 4.359-.112 1.758-1.55 2.908-2.508 3.675m37.704-14.18c.48-1.741.662-3.07.82-4.275.51-3.837 1.06-7.962-.32-12.875a25.777 25.777 0 0 0-3.133-6.937s-1.192-1.871-2.717-3.563c-2.417-2.683-11.675-10.287-25.075-10.158-2.992.03-15.858.537-24.408 10.158-1.188 1.342-4.275 4.9-5.846 10.5-1.517 5.388-.817 9.863-.321 12.863a35.844 35.844 0 0 0 4.137 11.696l-1.02.846-.242.208c-.03 0-.063.012-.142.062l-.366.271a12.03 12.03 0 0 0-1.55 1.454l-.017.017a7.53 7.53 0 0 0-.558 1.5c-.946 3.854 1.866 7.72 3.883 9.283l.108.067c1.854 1.404 3.854 2.075 5.85 2.046.254-.033.575-.067.909-.067 1.104 0 2.575.259 3.866 1.313a5.913 5.913 0 0 1 1.854 2.779c.4 1.183.288 2.108.192 3.004-.08.733-.175 1.5-.03 2.667.063.496.08.67.126.783.162.4.592.975 2.496 1.725 2.012.8 4.279 1.233 6.708 1.313h9.458c2.396-.08 4.65-.513 6.663-1.313 1.917-.75 2.35-1.325 2.508-1.742.034-.095.067-.304.113-.766.146-1.167.066-1.934-.03-2.667-.095-.896-.191-1.82.192-3.004.367-1.133.988-2.08 1.85-2.78 1.696-1.374 3.675-1.391 4.78-1.245 2.012.03 3.995-.642 5.862-2.046l.162-.112c1.934-1.488 4.775-5.371 3.817-9.238a7.064 7.064 0 0 0-.608-1.596 13.06 13.06 0 0 0-1.484-1.375l-.366-.27c-.084-.05-.113-.063-.146-.063l-.254-.208-1.009-.846a27.644 27.644 0 0 0 3.288-7.409m-29.561 51.018-.556.002-.552-.002.554-11.619zm-9.223-.227-.753-.043-.412-.025 2.742-11.931zm18.503-.069-.419.026-.746.043-1.577-11.999zm-27.938-.76 4.135-12.973-5.467 12.801c.442.06.886.117 1.332.172zm37.541-.173-5.468-12.8 4.135 12.972c.446-.055.891-.113 1.333-.172zm-47.401-1.456 7.543-14.288-9.144 13.94c.531.119 1.065.235 1.601.348zm57.528-.35-9.143-13.938 7.542 14.286c.537-.113 1.07-.229 1.601-.348zm-67.933-2.375 12.116-15.559-14.068 14.919c.646.219 1.297.433 1.952.64zm78.689-.642-14.067-14.917 12.115 15.558a99.029 99.029 0 0 0 1.952-.641zm-89.015-4.123 17.408-15.72-18.808 14.015c.457.577.924 1.146 1.4 1.705zm98.781-1.713-18.798-14.007 17.4 15.713a64.93 64.93 0 0 0 1.398-1.706zm-105.194-7.308 19.737-12.405-20.81 10.502c.347.642.705 1.276 1.073 1.903zm111.278-1.908-20.799-10.497 19.725 12.397c.368-.627.726-1.261 1.074-1.9zm4.394-10.06-22.184-6.75 21.455 8.791c.254-.677.497-1.357.729-2.041zm-120.395 2.039 21.451-8.79-22.175 6.748c.231.687.472 1.367.724 2.042zm122.997-12.655L212 198.814l22.575 4.99c.135-.707.258-1.416.369-2.127zm-125.945 2.122 22.557-4.985-22.926 2.86c.11.709.233 1.417.369 2.125zm126.688-13.001-23.066 1.076 23.068 1.077c.012-.717.011-1.434-.002-2.153zm-104.752 1.076-23.065-1.076c-.012.717-.011 1.434.002 2.153zm103.626-11.926L212 184.935l22.93-2.861a65.638 65.638 0 0 0-.369-2.126zm-103.005 4.986-22.573-4.989a63.841 63.841 0 0 0-.368 2.127zm100.055-15.518-21.453 8.79 22.177-6.748a62.392 62.392 0 0 0-.724-2.042zm-98.212 8.79-21.454-8.79a64.963 64.963 0 0 0-.729 2.04zm3.008-6.314-19.724-12.396a65.624 65.624 0 0 0-1.073 1.9zm90.48-12.405-19.738 12.405 20.81-10.502a64.158 64.158 0 0 0-1.072-1.903zm-6.415-9.019-17.406 15.718 18.806-14.014a63.65 63.65 0 0 0-1.4-1.704zm-79.981 15.718-17.4-15.712c-.476.56-.942 1.129-1.398 1.706zm69.655-20.483-12.114 15.557 14.066-14.916a99.029 99.029 0 0 0-1.952-.641zm-64.621 15.557-12.115-15.557c-.654.208-1.305.421-1.952.641zm54.215-18.281-7.541 14.286 9.142-13.938c-.53-.12-1.064-.236-1.601-.348zm-48.383 14.286-7.541-14.287c-.537.113-1.071.229-1.601.348zm38.525-15.915-4.135 12.971 5.467-12.799a109.9 109.9 0 0 0-1.332-.172zm-32.073 12.971-4.134-12.972c-.447.055-.891.113-1.334.172zm6.877-1.803-2.742-11.929.414-.026.751-.043zm16.511-11.955.415.026-2.742 11.929 1.577-11.997zm-8.865-.27-.554 11.618-.554-11.618.552-.001z"/>
  </g>
  <path fill="none" stroke="#231f20" stroke-width="8.333" d="M134.07 206.396c47.813 0 72.017-19.787 102.88-51.583-30.863-31.796-55.067-51.584-102.88-51.584-47.812 0-72.017 19.788-102.88 51.584 30.863 31.796 55.068 51.583 102.88 51.583z"/>
</svg>
