<svg xmlns="http://www.w3.org/2000/svg" xml:space="preserve" fill-rule="evenodd" stroke-miterlimit="10" clip-rule="evenodd" viewBox="0 0 268.1 309.6">
  <path fill="#b7c2cf" fill-rule="nonzero" stroke="#231f20" stroke-width="8.3" d="M264 229.8v-150l-130-75-129.8 75v150l129.9 75z"/>
  <path fill="#fff" fill-rule="nonzero" d="M133.3 259.4a101 101 0 0 1-83-43.3l6.1-8 11.3-11 12 .2 26.6-18.8 10.8 8.9 25.7 7.5 6-16.4 11.5-5.6 19.8 15.4.5-25.3 12-1.5 26 9.7 16-14.7v1.7c0 55.8-45.5 101.2-101.3 101.2zM32.2 148.1a101.2 101.2 0 0 1 194-34.5l-17-1.4-14 23.1-15.6-1-16.8-6.1-13.2 12.2-14.5-.3-25.4-22.7-16.3 4.7-4.1 28.9-18 9.4-27 3.2z"/>
  <path fill="#231f20" fill-rule="nonzero" d="m218.1 168.8 15-13.8 3.4-3 .2 4.5c.5 13.7-1.7 27.5-6.6 40.4a104.4 104.4 0 0 1-96.9 66.7 101.3 101.3 0 0 1-68.8-27 98 98 0 0 1-15.8-19.2l-1-1.3 7.2-9.2v-.1l.2-.1 11.3-11 .6-.6h.9l11.3.2 26-18.5 1.3-1 1.2 1 10.5 8.7 23.4 6.8 5.3-14.5.2-.8.8-.4 11.5-5.6 1.2-.5 1 .7 16.6 12.9.4-21.1v-1.8l1.8-.3 12-1.4.5-.1.4.2zm-76.8 27.8-24.7-7.2-.5-.2-.3-.2-9.6-7.9-25.2 18-.6.3h-.6l-11.2-.1L58 209.6l-5 6.5A101.7 101.7 0 0 0 171 248a100 100 0 0 0 61.2-86.4L220 172.7l-1 .9-1.2-.4-25.5-9.5-9.7 1.2-.4 22.6 14 16.1-16.4-13-1-.7-18.8-14.6-9.6 4.7-5.4 14.9 7.5 21.4.1.4v.3l-5.5 14.1 3.3-14.3zm-46-72.9-4 27.6-.1 1-1 .5-18 9.5-.3.2h-.4l-27 3.2-1.1.1-.7-.9-12.5-16.1.5-9.3c.2-3.1 1-5.8 1.4-8.7.4-2.8 1.3-5.6 2-8.4l1.3-4.2 1.6-4a99.5 99.5 0 0 1 17.9-29.8 104 104 0 0 1 128-23 100.4 100.4 0 0 1 45.2 51.4l1.2 3.2-3.3-.3-15.7-1.3-13.2 22-.7 1h-1.3l-15.6-1h-.3l-.3-.1-15.6-5.7-12.3 11.3-.6.6h-.9l-14.4-.4h-.8l-.6-.5-24.5-22zm69.3 3 15.4 5.5 14.2 1 13.2-22 .7-1.2 1.3.1 13.2 1.1a104.6 104.6 0 0 0-43.2-43A98 98 0 0 0 148.6 58l-8-.9c-2.8 0-5.5-.2-8.2-.1l-8 .3-8.1 1.1a100 100 0 0 0-73.8 58l-1.7 3.8-1.3 3.9c-.8 2.6-1.9 5.2-2.4 7.9-.5 2.6-1.4 5.4-1.7 8l-1.3 7.5 11.1 14 25.5-3 16.7-8.9 3.8-27-8.7-14.4L94 119.8l14-4.1 5-19.1-1.2 19.9L136 138l12.9.3 11.7-10.8-4.9-22-.2-1 .5-.7 13.6-15.7-9.6 17.2z"/>
  <path fill="#fff" fill-rule="nonzero" stroke="#231f20" stroke-width="4.1" d="m14.1 215-3.7 6.7 10-4 1.4-2.6zm27.2-6.7a98.3 98.3 0 0 1-14-46.3l11.2 11.3L35 185l8.3 20.4zm6.7-21.6 3.9 14.1 5.8-5.8-8-12.2zm-29.6 10 1.3-3.7-8.6-1.2zm36.8-25 9.4 14.1 3.2.4.3-15.7zm69.5 8.9 13.4 5.2 2.4-7.9-11.6-3zm-47.5-13.8.4 15.8 22.8-12-9.7-11.4zm37.5 7.5 1.8 1.9 1.2-2zm51.8-7.3 7.4 5.4-.2-10.3zm-33.6.4 13 1.7 10.3-6-8.7-12.2-10.5-1.6zm-33.5-37.8-2 23 13.8 12.7 13.5-.8 4.2-19.8-21-18.1zm102.3 23.1-.3 1.1 11.8 4.8.9-8.9zm-45-6 6.8 9.3 10.5-6.4-.6-8.7-8.7-1.7zm69.1-6.8 9.4-4c.7 3.5 1.2 7 1.5 10.6l-10.9 6.9zm-40.5 11.8 4.7.3 1.6-6-5.9-.4zm70.2-6.2 2.4.3-1.4-1.3zm-52.8-6.7v.3l13-5.6-2.9-10.2zm21-18.4h7.3l2 5.3-7.2 4zm23.3-.5h3.1l-1.5-2z"/>
  <path fill="#231f20" fill-rule="nonzero" d="M244.6 133h4l-1-4.6Z"/>
</svg>
