<svg xmlns="http://www.w3.org/2000/svg" xml:space="preserve" fill-rule="evenodd" stroke-miterlimit="10" clip-rule="evenodd" viewBox="0 0 268.14 309.62">
  <path fill="#b7c2cf" fill-rule="nonzero" stroke="#231f20" stroke-width="8.33" d="M263.98 229.81v-150l-129.9-75-129.91 75v150l129.9 75z"/>
  <path fill="#231f20" fill-rule="nonzero" d="m152.48 294.18 1.35-.78-3.75-16.73zm-38.17-.78 1.35.78 2.4-17.5zm-16.52-9.54.92.53 3.82-11.79zm72.56 0-4.74-11.26 3.83 11.79zm-88.16-9 .77.44 5-9.35zm102.99.44.77-.44-5.77-8.9zm-118.66-9.5.88.52 7.4-9.39zm135.1 0-8.28-8.87 7.4 9.39zm15.48-8.93 1.3-.75-13.69-10.3zm-167.36-.75 1.3.75 12.4-11.06zm187.86-11.08-23.67-12.11 21.5 13.36zm-207.06 0 2.16 1.24 21.51-13.35zm227-11.51 3.87-2.24-40.69-12.62zm-250.8-2.24 3.87 2.24 36.8-14.86zm257.23-22.72-39.09-5.09 39.1 8.42zm-259.8 0v3.33l39.09-8.42zm0-19.2 37.69-1.56-37.7-1.55zm222.12-1.56 37.68 1.56v-3.12zM4.17 167.06l39.09 5.09-39.1-8.42Zm259.8 0v-3.34l-39.09 8.43zm-43.25-10.1 43.25-13.42v-4.04zM4.17 143.53l43.25 13.41L4.17 139.5Zm0-26.43 50.04 25.6-50.04-31.09zm259.8 0v-5.5l-50.04 31.1zm-59.26 12.7 59.26-44.65V79.8l-2-1.15zM4.17 79.8v5.35l59.26 44.65L6.16 78.66zm22.32-12.9 48.3 51.78-43.12-54.76zm215.16 0-5.18-2.98-43.12 54.76zm-61.47 42.76 36.9-56.93-4.93-2.85zM51.06 52.74l36.9 56.93L56 49.9Zm141.63-14.09-5.2-3-21.88 67.38zm-117.24 0 27.08 64.37-21.88-67.37zm25.76-14.87 16.85 75.18-10.78-78.69zm48.87 75.18 16.85-75.18-6.07-3.5zM137.9 7.02l-3.83-2.2-3.83 2.2 3.83 90.57z"/>
  <path fill="#727880" fill-rule="nonzero" stroke="#231f20" stroke-width="4.17" d="m51.92 184.54 13.94-45.27c.34-1.05.56-2.1.64-3.18l3.22 1.65a13.56 13.56 0 0 1 6 18.17l-17.17 34.32zm157.67 5.7-17.16-34.33a13.57 13.57 0 0 1 6-18.18l3.22-1.64c.07 1.09.3 2.13.63 3.18l13.94 45.26z"/>
  <path fill="#868e97" fill-rule="nonzero" stroke="#231f20" stroke-width="4.17" d="m226.15 142.9-5.36 22.45-4.57 19.19-13.93-45.27a15.6 15.6 0 0 1 6.7-17.84l4.39-2.69zM66.5 136.1a13.3 13.3 0 0 1-.64 3.18l-13.94 45.26-4.57-19.18L42 142.91l12.78-24.17 4.38 2.7a15.6 15.6 0 0 1 7.35 14.65z"/>
  <path fill="#fff" fill-rule="nonzero" d="m67.53 261.58-18.21-51.6-19.17-34.2v-61.76l8.65 2.8a13.5 13.5 0 0 1 9.06 10.06l8.8 41.57 17.78 18.78.09 1.05a9.66 9.66 0 0 0-1.67 9.38l3.13 8.86 2.43 30.32V213.4L76 206.52l-1.46-18.24a9.67 9.67 0 0 1 14.3-.68 64.43 64.43 0 0 1 14.38 21.96l12.12 30.83v48.8zm85.28 27.6 47.8-27.6 18.21-51.6 19.17-34.2v-61.76l-8.65 2.8a13.5 13.5 0 0 0-9.06 10.06l-8.79 41.57-17.8 18.78-.08 1.05a9.66 9.66 0 0 1 1.67 9.38l-3.13 8.86-2.43 30.32V213.4l2.43-6.89 1.46-18.24a9.67 9.67 0 0 0-14.3-.68 64.43 64.43 0 0 0-14.37 21.96l-12.13 30.83z"/>
  <path fill="#231f20" d="m64.11 264.42-18.6-52.71-19-33.89-.53-.95V108.3c3.1.92 10.1 3.33 13.27 4.3 6.67 1.64 12.15 8.11 12.97 14.78l1.7 8.04 6.57 31.02 16.05 16.94a11.77 11.77 0 0 1 9.5-.8c8.41 3.79 13.65 13.07 18.08 20.67 4.07 8.18 11.34 27.13 15.1 35.61l.28.72v56.82l-8.33-4.8v-50.47l-8.6-23.23c-3.39-9.93-7.4-19.13-14.55-26.81-5.1-7.45-15.82-1.8-12.65 6.45.78 2.43 4.39 13.08 5.15 15.7.01.18-2.1 23.41-2.1 23.6l-2.04-22.93-4.42-11.78c-.72-2.07-1.88-4.34-2.07-6.68-.27-2.13.09-4.18.9-6l-17.16-18.13-.81-.86-.24-1.15-6.8-32.16-1.7-8.05c-.6-3.39-1.79-5.6-4.54-7.37-1.04-.65-3.11-1.35-5.22-2.01v54.98l18.63 33.25.18.3c.01.24 14.63 41.47 22.1 62.6zm84.53 31.98v-56.82l.29-.72c3.84-8.61 11.01-27.34 15.1-35.6 4.41-7.61 9.67-16.9 18.06-20.68a11.8 11.8 0 0 1 9.51.8l16.05-16.94 8.27-39.06c.81-6.64 6.31-13.16 12.97-14.79 3.08-.96 10.2-3.32 13.27-4.29v68.57l-.53.95-19.12 34.1c-.12.72-10.85 30.94-18.49 52.5l-11.1 6.42 22.1-62.58.17-.31 18.63-33.25v-55c-2.93.89-5.9 1.99-7.38 3.86-2.47 2.4-3.11 10.12-4.07 13.59l-6.8 32.16-.25 1.15-.8.86-17.18 18.12c.82 1.83 1.18 3.88.91 6.01-.19 2.34-1.35 4.62-2.06 6.68l-4.43 11.78-2.04 22.93c0-.22-2.1-23.42-2.1-23.6.78-2.67 4.37-13.24 5.15-15.7 3.18-8.25-7.55-13.9-12.65-6.45-7.15 7.68-11.15 16.88-14.55 26.8l-8.6 23.24v50.46z"/>
</svg>
