<svg xmlns="http://www.w3.org/2000/svg" xml:space="preserve" fill-rule="evenodd" stroke-linecap="round" stroke-linejoin="round" stroke-miterlimit="10" clip-rule="evenodd" viewBox="0 0 113 117">
  <path fill="none" stroke="#dde1e7" stroke-width="4.2" d="M56.5 56.5c-9.2 0-16.7-7.5-16.7-16.7V27.3c0-4.6 3.8-8.3 8.4-8.3h16.6c4.7 0 8.4 3.7 8.4 8.3v12.5c0 9.2-7.5 16.7-16.7 16.7ZM48.2 19 44 6.5l4.2-4.2m0 62.5H14.8L2.3 56.5m20.9 50V85.7l25-20.9M19 31.5v16.7l29.2 16.6M64.8 19 69 6.5l-4.2-4.2m0 62.5h33.4l12.5-8.3m-20.9 50V85.7l-25-20.9M94 31.5v16.7L64.8 64.8m-3 9.6a15 15 0 0 0 3-9.6c0-3.7-1-7-2.8-9.3-1.7.6-3.6 1-5.5 1-2 0-3.7-.4-5.5-1a15.6 15.6 0 0 0-2.8 9.3c0 3.9 1.2 7.3 3 9.6-6.6 2.8-11.4 10.4-11.4 19.6 0 11.5 7.5 20.8 16.7 20.8s16.7-9.3 16.7-20.8c0-9.2-4.8-16.8-11.3-19.6Z"/>
</svg>
