<svg xmlns="http://www.w3.org/2000/svg" xml:space="preserve" fill-rule="evenodd" stroke-miterlimit="10" clip-rule="evenodd" viewBox="0 0 65 75">
  <path fill="#9aa3ad" stroke="#000" stroke-width="2" d="M63.35 55.16v-36l-31.17-18L1 19.16v36l31.18 18 31.17-18Z"/>
  <path fill="#6c7279" fill-rule="nonzero" d="M12.22 61.63a20.5 20.5 0 0 1-.49-4.47c0-.76.32-2.46.86-5.87.74-4.7 1.46-8.5 1.95-10.98l4.66-1.12 4.88 3.53 8.24-4.29 9.23 4.65 6.41-2.47 4 1.32a28.7 28.7 0 0 1-1.06 20.42l-18.72 10.8-19.96-11.52Z"/>
  <path fill="#fff" stroke="#000" stroke-width="2" d="M2.61 56.09A31.29 31.29 0 0 1 14.54 40.3l3.6 6.23 15.89 7.05 15.16-5.9 2.78-5.76a31.22 31.22 0 0 1 9.77 14.17L32.18 73.15 2.6 56.1Z"/>
  <path fill="#fff" fill-rule="nonzero" stroke="#000" stroke-width="2" d="m49.98 28.24-2.78 4.88-13.54 2.48-13.61-5.42-2.79-5.67a27.27 27.27 0 0 1 15.8-3.71 27.28 27.28 0 0 1 16.92 7.44Z"/>
  <path fill="#6c7279" fill-rule="nonzero" stroke="#000" stroke-linejoin="round" stroke-miterlimit="2" d="M31.73 40.26a.5.5 0 0 1-.3-.11l-11.52-9.2a.5.5 0 0 1 .48-.85l13.32 4.98 13.24-2.16h.08a.5.5 0 0 1 .2.96l-15.3 6.34a.5.5 0 0 1-.2.04"/>
  <path fill="none" stroke="#000" stroke-linecap="square" stroke-width=".5" d="m31.73 39.76 1.93-4.16"/>
  <path fill-rule="nonzero" d="m52.05 61.68-1.55-2.16 2.04-5.83-4.17-5.44 1.65-1.13 3.9 6.43-2.84 5.92 1.19 2.09-.22.12Zm-37.34-9.62 1.45 5.96-2.45-5.94-.08-.2 3.71-5.95 1.61 1.19-4.24 4.94Z"/>
  <path fill="#fff" fill-rule="nonzero" stroke="#000" d="m42 39.5-4.97 4.06 2.8 2.63 3.43-.63L42 39.5Zm-4.74-28.04-2.8 4.56 4.82.25-2.02-4.81ZM20.22 40.9l5.53 4.55-.17-5.21-5.36.66Zm33.83-7.42-1.79 2.8 3.68.57 1.51-3.25-3.4-.12ZM7.76 31.09l2.5 3.38 1.8-3.45-4.3.07Z"/>
</svg>
