<svg xmlns="http://www.w3.org/2000/svg" xml:space="preserve" fill-rule="evenodd" stroke-miterlimit="10" clip-rule="evenodd" viewBox="0 0 65 75">
  <path fill="#9aa3ad" stroke="#000" stroke-width="2" d="M63.35 55.16v-36l-31.17-18L1 19.16v36l31.18 18 31.17-18Z"/>
  <path fill="#fff" fill-rule="nonzero" stroke="#000" stroke-width="2" d="M51.24 20.27H12.99a5.82 5.82 0 0 0-5.82 5.82v16.19c0 3.21 2.6 5.82 5.82 5.82h30.36l4.18 6.57V48.1h3.7c3.22 0 5.82-2.6 5.82-5.82v-16.2c0-3.2-2.6-5.8-5.81-5.8Z"/>
  <path fill-rule="nonzero" d="M12.64 40.8h6.58v-13h-6.58v13Zm.75 1.97c-2.27 0-3.03-1.25-3.03-2.82v-11.3c0-1.56.76-2.82 3.03-2.82h5.07c2.28 0 3.04 1.26 3.04 2.82v11.3c0 1.57-.76 2.82-3.04 2.82H13.4Zm11.36-13.72v-1.44l4.95-1.78h.33v16.94h-2.27V28.39l-3.01.66m20.38 11.76h6.59v-13h-6.59v13Zm.76 1.96c-2.27 0-3.03-1.25-3.03-2.82v-11.3c0-1.56.76-2.82 3.03-2.82h5.07c2.28 0 3.03 1.26 3.03 2.82v11.3c0 1.57-.75 2.82-3.03 2.82H45.9ZM34.32 29.05v-1.44l4.95-1.78h.34v16.94h-2.28V28.39l-3 .66"/>
</svg>
