<svg xmlns="http://www.w3.org/2000/svg" xml:space="preserve" fill-rule="evenodd" stroke-miterlimit="10" clip-rule="evenodd" viewBox="0 0 64.35 74.31">
  <path fill="#9aa3ad" fill-rule="nonzero" stroke="#000" stroke-width="2" d="M63.35 55.15v-36l-31.17-18L1 19.15v36l31.18 18z"/>
  <path fill="#fff" fill-rule="nonzero" stroke="#000" stroke-width="2" d="M23.22 33.74a7.98 7.98 0 1 1-15.97 0zm33.88 0a7.98 7.98 0 1 1-15.96 0z"/>
  <path fill="none" stroke="#000" stroke-linecap="round" stroke-linejoin="round" d="m15.23 24.22-7.98 9.52h15.97Zm33.89 0-7.98 9.52H57.1Z"/>
  <path fill="none" stroke="#000" stroke-linecap="round" stroke-linejoin="round" stroke-width="2" d="M31.97 22.04a13.1 13.1 0 0 1 5.2-2.51c1.08-.25 3.76-.86 6.62.16 2 .73 3.12 1.9 5.44 1.85a6.9 6.9 0 0 0 1.68-.25"/>
  <path fill="none" stroke="#000" stroke-linecap="round" stroke-linejoin="round" stroke-width="2" d="M32.1 22.04a12.81 12.81 0 0 0-5.11-2.51c-1.08-.25-3.71-.86-6.53.16-1.98.73-3.08 1.9-5.37 1.85a6.8 6.8 0 0 1-1.65-.25"/>
  <path fill="#fff" fill-rule="nonzero" stroke="#000" stroke-width="2" d="M34.92 37.5V21.67c0-1.5-1.12-2.86-2.62-2.93a2.75 2.75 0 0 0-2.87 2.75V37.5c0 5.77-1.2 11.58-4.14 16.55l-.04.09c-1.01 1.76.34 3.95 2.37 3.95h9.11c2.03 0 3.39-2.2 2.38-3.95a3.65 3.65 0 0 0-.05-.09c-2.93-4.97-4.14-10.78-4.14-16.55Z"/>
</svg>
