<svg xmlns="http://www.w3.org/2000/svg" xml:space="preserve" fill-rule="evenodd" clip-rule="evenodd" viewBox="0 0 179.97 202.58">
  <path fill-rule="nonzero" stroke="#fff" stroke-width="8.33" d="M9.5 48.83a11.28 11.28 0 0 0-5.33 9.24v86.45c0 3.57 2.24 7.45 5.33 9.23l75.15 43.24a11.3 11.3 0 0 0 10.66 0l75.15-43.24a11.28 11.28 0 0 0 5.34-9.23V58.07a11.3 11.3 0 0 0-5.34-9.24L95.31 5.6a11.33 11.33 0 0 0-10.66 0z"/>
  <path fill="#fff" fill-rule="nonzero" d="m107.35 91.38-36.8-39.62a4.18 4.18 0 0 0-6.11 0L27.62 91.38a4.16 4.16 0 0 0 .03 5.7l36.81 38.96a4.16 4.16 0 0 0 6.05 0l36.82-38.96a4.16 4.16 0 0 0 .02-5.7"/>
  <path fill-rule="nonzero" d="m70.6 94.87 15-6.47a2.3 2.3 0 0 0 1.35-1.44c.2-.63.07-1.32-.34-1.94L68.86 58.18c-.39-.59-.88-.91-1.37-.91-.5 0-.98.32-1.37.9L48.37 85.03a2.3 2.3 0 0 0-.34 1.94c.19.64.67 1.15 1.35 1.44l15 6.47c.8.35 1.93.55 3.1.55 1.18 0 2.32-.2 3.12-.55m31.95.69c-.1-.53-.53-.97-1.18-1.26l-8.07-3.53a8.19 8.19 0 0 0-3.13-.55c-1.16 0-2.28.2-3.08.54l-15 6.47a5.37 5.37 0 0 0-2.94 4.47v28.56c0 .76.2 1.04.24 1.07.11 0 .44-.14.9-.62l31.66-33.52c.5-.52.71-1.1.6-1.63m-8.58-7.15 7.83 3.42-27.2-29.27 14.23 21.52a14.24 14.24 0 0 0 5.14 4.33m-31.09 8.82-15-6.47a8.1 8.1 0 0 0-3.08-.54c-1.18 0-2.32.2-3.12.55l-8.07 3.53c-.66.29-1.08.74-1.19 1.27-.1.52.1 1.1.6 1.62l31.66 33.51c.47.5.8.62.9.62h.02c.03-.03.22-.3.22-1.07v-28.55a5.36 5.36 0 0 0-2.94-4.47M41 88.42c1.75-.76 4.1-2.74 5.15-4.32l14.24-21.54-27.21 29.29z"/>
  <path fill-rule="nonzero" d="m140.5 106.36-34.38-37a3.88 3.88 0 0 0-5.7 0l-34.38 37a3.89 3.89 0 0 0 .02 5.31l34.38 36.39a3.9 3.9 0 0 0 5.66 0l34.37-36.39a3.89 3.89 0 0 0 .03-5.31"/>
  <path fill="#fff" fill-rule="nonzero" d="m152.35 106.19-36.81-39.62a4.18 4.18 0 0 0-6.1 0l-36.82 39.62a4.16 4.16 0 0 0 .02 5.7l36.81 38.96a4.16 4.16 0 0 0 6.06 0l36.81-38.96a4.16 4.16 0 0 0 .03-5.7"/>
  <path fill-rule="nonzero" d="m115.6 109.68 14.99-6.47a2.3 2.3 0 0 0 1.35-1.44c.2-.63.07-1.32-.34-1.94l-17.74-26.84c-.4-.59-.88-.91-1.38-.91-.5 0-.98.32-1.37.9L93.36 99.84c-.4.62-.53 1.3-.34 1.94.19.64.67 1.15 1.36 1.44l15 6.47c.8.35 1.93.55 3.1.55 1.18 0 2.31-.2 3.11-.55m31.96.69c-.11-.53-.53-.97-1.2-1.26l-8.05-3.53a8.16 8.16 0 0 0-3.13-.55c-1.17 0-2.3.2-3.09.54l-15 6.47a5.37 5.37 0 0 0-2.93 4.47v28.56c0 .76.18 1.04.23 1.07.12 0 .44-.14.9-.62L146.95 112c.5-.52.7-1.1.6-1.63m-8.59-7.14 7.83 3.42-27.2-29.27 14.23 21.52a14.24 14.24 0 0 0 5.14 4.33m-31.08 8.82-15-6.47a8.1 8.1 0 0 0-3.08-.54c-1.18 0-2.32.2-3.13.55l-8.07 3.53c-.66.29-1.08.74-1.19 1.26-.1.53.1 1.11.6 1.63l31.67 33.51c.46.5.78.62.9.62.05-.03.23-.3.23-1.07v-28.55a5.36 5.36 0 0 0-2.93-4.47M86 103.23c1.74-.76 4.1-2.74 5.14-4.32l14.24-21.54-27.2 29.29z"/>
</svg>
