<svg xmlns="http://www.w3.org/2000/svg" xml:space="preserve" fill-rule="evenodd" clip-rule="evenodd" viewBox="0 0 179.96 202.58">
  <g stroke="#fff">
    <path fill-rule="nonzero" stroke-width="8.33" d="M9.5 48.83a11.28 11.28 0 0 0-5.34 9.23v86.46c0 3.57 2.25 7.45 5.34 9.23l75.15 43.24a11.3 11.3 0 0 0 10.66 0l75.15-43.24a11.28 11.28 0 0 0 5.34-9.23V58.06c0-3.57-2.25-7.45-5.34-9.23L95.31 5.6a11.33 11.33 0 0 0-10.66 0z"/>
    <path fill="none" stroke-linecap="round" stroke-linejoin="round" stroke-miterlimit="10" stroke-width="4.17" d="M80.43 119.5c-16.65-1.44-29.62-7.36-29.62-14.8 0-2.31 1.13-4.11 3.3-5.9m49.53 53.38a82.58 82.58 0 0 1-15.51 1.45c-17.15 0-32.7-5.17-44.19-13.59m76.8-44.9c4.4 2.5 7.2 6.42 7.2 9.7 0 6.12-11.02 12.01-23.38 12.92m19.78 10.44c11.32-5.06 17.98-12.63 17.98-20.87 0-9-8.41-15.84-21.58-20.89m-26.2 48.57c-1.5.06-3.03.1-4.56.1-28.9 0-52.34-11.72-52.34-26.18 0-10.37 12.08-19.34 29.59-23.57"/>
    <path fill="none" stroke-linejoin="round" stroke-miterlimit="10" stroke-width="4.17" d="m105.91 48.95 5.4 12.8 12.8 5.4-12.8 5.4-5.4 12.8-5.4-12.8-12.8-5.4 12.8-5.4zM89.98 83.08l5.4 12.8 12.8 5.4-12.8 5.41-5.4 12.8-5.4-12.8-12.8-5.4 12.8-5.4zm25.04 43.24 4.55 9.1 9.1 4.56-9.1 4.55-4.55 9.1-4.56-9.1-9.1-4.55 9.1-4.56z"/>
  </g>
</svg>
