<svg xmlns="http://www.w3.org/2000/svg" xml:space="preserve" fill-rule="evenodd" stroke-miterlimit="10" clip-rule="evenodd" viewBox="0 0 182.338 210.543">
  <path fill="#b7c2cf" fill-rule="nonzero" stroke="#231f20" stroke-width="5.667" d="M179.504 156.272v-102l-88.333-51-88.338 51v102l88.338 51Z"/>
  <path fill="#fff" fill-rule="nonzero" stroke="#231f20" stroke-width="2.833" d="M144.908 81.83h-26.554c-7.666 0-13.779 6.417-13.4 14.075l1.034 21.1c.312 6.38 5.575 11.388 11.958 11.388l3.42 31.362h20.53l3.42-31.362c6.384 0 11.647-5.009 11.96-11.388l1.032-21.1c.38-7.658-5.733-14.075-13.4-14.075Zm-1.683-11.592c0-6.404-5.192-11.595-11.592-11.595-6.404 0-11.595 5.191-11.595 11.595 0 6.4 5.191 11.592 11.595 11.592 6.4 0 11.592-5.192 11.592-11.592zM63.988 81.83H37.433c-7.666 0-13.779 6.417-13.404 14.075l1.034 21.1c.316 6.38 5.579 11.388 11.962 11.388l3.42 31.362h20.53l3.42-31.362c6.384 0 11.647-5.009 11.96-11.388l1.033-21.1c.375-7.658-5.734-14.075-13.4-14.075zm-1.684-11.592c0-6.404-5.191-11.595-11.596-11.595-6.4 0-11.591 5.191-11.591 11.595 0 6.4 5.191 11.592 11.591 11.592 6.405 0 11.596-5.192 11.596-11.592z"/>
  <path fill="#fff" stroke="#231f20" stroke-linecap="round" stroke-linejoin="round" stroke-width="5.67" d="M109.716 65.582H72.621c-10.713 0-19.246 8.963-18.72 19.663l1.44 29.475c.438 8.912 7.788 15.912 16.713 15.912l4.78 43.808h28.674l4.775-43.808h.004c8.921 0 16.271-7 16.71-15.912l1.44-29.475c.525-10.7-8.008-19.663-18.72-19.663zm-2.35-16.196c0-8.94-7.258-16.196-16.197-16.196s-16.196 7.257-16.196 16.196c0 8.939 7.257 16.196 16.196 16.196 8.94 0 16.196-7.257 16.196-16.196z"/>
</svg>
