<svg xmlns="http://www.w3.org/2000/svg" xml:space="preserve" fill-rule="evenodd" stroke-linecap="round" stroke-linejoin="round" stroke-miterlimit="10" clip-rule="evenodd" viewBox="0 0 105 102">
  <path fill="none" stroke="#dde1e7" stroke-width="4.2" d="M28.1 21.9c-1.1 8.8 2.6 17 7.5 18 5 1.2 9.5-4.7 9.7-13.6.1-7.5-.6-21.3-4.9-23.2C35.7.9 29.3 13 28.1 21.9ZM102 46.3c-.1 9-5 16.2-10 16.1-5 0-8.7-6.7-7.5-15.6.9-7.3 3.5-20.8 8-21.7 5-1.1 9.6 12.2 9.5 21.2Zm-99 0c.2 9 5 16.2 10 16.1 5 0 8.7-6.7 7.6-15.6-1-7.3-3.6-20.8-8.1-21.7C7.5 24 2.9 37.3 3 46.3Zm72.5-24.4c1.1 8.8-2.6 17-7.5 18-5 1.2-9.5-4.7-9.7-13.6C58.2 18.8 59 5 63.2 3 67.9.9 74.3 13 75.5 21.9ZM86 79.4s-2.9-24.8-33.6-24.8h-.7c-30.7 0-33.6 24.8-33.6 24.8-1.8 10.5-.1 20.3 12.4 20.3s11.2-12.2 21.2-12.2h.7c10 0 8.8 12.2 21.3 12.2S87.9 90 86 79.4Z"/>
</svg>
