<svg xmlns="http://www.w3.org/2000/svg" xml:space="preserve" fill-rule="evenodd" stroke-linecap="round" stroke-linejoin="round" stroke-miterlimit="10" clip-rule="evenodd" viewBox="0 0 126 103">
  <g fill="none" stroke="#dde1e7" stroke-width="4.2">
    <path d="M62.5 98c6.5 0 10.2-5.8 15.8-9.7C86.6 82.4 93.7 78.2 91 71c-8-22.4-12.4-25.1-28.5-25.1S42 48.6 34 71c-2.6 7.1 4.5 11.3 12.9 17.2 5.6 4 9.2 9.6 15.7 9.6Zm6.6-86.4c4 5 15.5 13.6 20 13.8a50.2 50.2 0 0 0-12.8-19c1.4 0 5.6-.6 10.1 1.3 17.5 7.3 21 22.7 15.1 29-6 6.6-18.1.4-21.7-1.9-7.2-4.4-12.4-17.2-10.7-23.2Zm11.5 75.5c12 2.1 17.3 9.3 17.3 13m-7.7-21c9 2.8 13 3 18.1 0M90.5 67.4c7.2.4 14.4-1.8 15.8-6.9"/>
    <path stroke-linejoin="miter" d="M84 51.9c.8-3.6 5-5 5-5s-.9-4 0-6.8m14.4-5.7c1.5 4.4 2.9 12.9-7 16.3-.2 2.6-2 7.5-8.9 8.8"/>
    <path d="M44.4 87c-12 2.2-17.3 9.4-17.3 13m7.7-21c-9 2.9-13 3.2-18.1.2m17.8-12c-7.1.5-14.4-1.7-15.7-6.8"/>
    <path stroke-linejoin="miter" d="M42.3 51.3c-1.4-3.5-5.9-4.8-5.9-4.8s1-4.2-.4-7.2m-14.6-3.7c-1.2 5 0 11.8 7.7 14.5.2 2.6 1 7.1 8.6 9"/>
    <path d="M49.5 5.6c-2.7 3.7-10 12.8-14.4 14.1-.4-3.8 5-15 6.2-17.6-1.4.2-5.8.8-9.7 3.8-15.8 11.8-15.3 27.3-7.8 32 7.7 5 19.3-2.3 22.3-5.4 6-6 8.2-17.9 3.4-26.9Z"/>
  </g>
</svg>
