<svg xmlns="http://www.w3.org/2000/svg" xml:space="preserve" fill-rule="evenodd" stroke-miterlimit="10" clip-rule="evenodd" viewBox="0 0 125 151">
  <g fill="none" stroke="#dde1e7" stroke-width="4.2">
    <path d="M103.2 62.1A40.5 40.5 0 0 0 62.5 22C40 22 21.8 40 21.8 62.2c0 7.3 2.7 10 5.4 10 2.8 0 8-4.7 16.1-4.7 8.2 0 11 4.8 19.2 4.8s11-4.8 19.2-4.8c8.1 0 13.3 4.8 16.1 4.8 2.7 0 5.4-2.8 5.4-10Z"/>
    <path stroke-linecap="round" d="M80.3 120c-.6-1.7-1-3.8-1-6 0-7.8 4.8-10.4 4.8-18.2 0-7.8-4.8-10.4-4.8-18.2 0-4.1 1.4-7.5 2.6-10.2m-17 62.3c0-2.7-4.8-7.8-4.8-15.6S65 103.7 65 95.9c0-7.8-4.8-10.4-4.8-18.3 0-2 .3-3.8.8-5.4m-19 47.9a23 23 0 0 1-1-6.2c0-7.8 4.8-10.4 4.8-18.1 0-7.8-4.7-10.4-4.7-18.2 0-4.1 1.3-7.5 2.6-10.2m19-45.5V41m0-19.1s-12 3-16.9 16.7M62.5 22s12 3 16.8 16.7"/>
  </g>
</svg>
