<svg xmlns="http://www.w3.org/2000/svg" xml:space="preserve" fill-rule="evenodd" stroke-miterlimit="10" clip-rule="evenodd" viewBox="0 0 139 128">
  <path fill="#dde1e7" fill-rule="nonzero" d="M103.114 67.651c-2.025-.859-5.683-.925-7.312-.45.004 0 1.275-2.979 1.371-3.213.566-1.375 1.191-2.908 1.454-4.371.637-3.55 1.521-7.266-1.242-9.929-.087 1.688-.421 2.463-1.229 3.954-.954 1.763-1.9 3.53-2.725 5.359-1.188 2.625-2.725 5.679-3.113 8.546-.258 1.904.225 4.308 3.525 4.037 2.013-.167 3.821-.45 5.663-1.258.546-.238 4.383-2.375 4.921-1.859-.325-.32-.784-.591-1.313-.816M87.393 36.489c-.8-1.117-1.816-2.017-2.833-2.784a25.274 25.274 0 0 0-1.542-1.045c-.266-.167-.47-.313-.779-.48l-.858-.454c-.167-.083-.304-.158-.454-.237.575-1.275 1.154-2.538 1.791-3.767a44.496 44.496 0 0 1 1.655-2.892c.6-1.025 1.291-1.966 2.016-3.129-2.662.146-5.175 1.388-7.179 3.188-2.004 1.816-3.458 4.104-4.475 6.404l-.029.067a2.77 2.77 0 0 0 .529 3.029c1.429 1.508 3.013 1.991 4.088 2.346l1.575.487 1.625.479c1.07.296 2.083.584 3.104.95 1.037.35 1.866.184 2.975.917.008-1.338-.434-1.95-1.209-3.079m-22.797-3.08c-.192-.967-.7-2.167-1.571-3.088-.85-.933-1.912-1.441-2.75-1.7-.583-.204-1.779-.404-2.479-.333-1.613.062-3.113.754-4.538 1.442-1.216.587-2.275 1.404-3.662.937-.792-.267-1.333-.5-1.333-.5s-.1.554.104 1.521c.362 1.704 1.891 2.558 3.441 3.146.438.162 4.971.954 4.996.529-.008.146-.079.579-.1.758-.266 1.854-.362 3.738-.204 5.609.138 1.62.483 1.629.733 3.229.109.996.434 1.483.434 1.483s.387-.433 1.054-.925c3.108-2.292 4.604-4.217 5.6-7.867.262-.966.604-2.295.275-4.241"/>
  <path fill="none" stroke="#dde1e7" stroke-width="4.17" d="M117.54 24.341c-.621-.617-2.9-2.65-2.9-2.65-.738-.733-1.6-.775-2.538-.329l-12.308 5.629a7.38 7.38 0 0 0-3.558 3.617l-3.117 6.854c-.896.108-1.812.204-2.762.291-1.696.163-3.53.338-5.471.521-1.934.146-3.859.392-5.929.638a94.928 94.928 0 0 0-13.263 2.666c-11.196 3.113-21.017 9.43-29.45 17.363-5.021 4.721-11.412 11.333-13.592 17.871-2.175 6.533-2.058 14.008 1.259 20.046 4.921 8.962 17.275 9.579 26.65 9.166 1.725-.058 3.666.054 5.454-.108 3.587-.308 6.675-.446 9.946-.879 6.537-.892 11.791-2.279 16.896-2.429 3.45-.209 9.158-.855 11.383 2.441.35.521.825 1.829 1.625 1.771.858-.058 1.008-.883.904-1.546-.446-2.954-2.496-4.996-5-6.625-2.308-1.496-5.358-2.671-8.079-3.121-8.071-1.345-24.375-1.033-36.092-.962-3.283.021-7.179-.504-8.85-3.329-1.462-2.484-.396-5.679 1.084-8.154 3.112-5.196 8.045-9.242 13.67-11.45 5.475-2.155 11.625-2.275 17.317-3.696 5.958-1.488 11.788-3.659 16.996-6.946 4.55-2.871 8.567-6.671 11.521-11.175.4-.608 1.596-1.883 2.725-3.571l6.746-3.067a7.353 7.353 0 0 0 3.612-3.558l5.225-12.837c.05-.459.467-1.88-.104-2.442Z"/>
  <path fill="#dde1e7" fill-rule="nonzero" d="M109.37 68.982c-1.021-.067-2.725-.179-2.713-.675.171-.308 1.796-.5 2.671-.6 1.779-.208 3.259-.004 3.929-1.046.192-.3.371-.8.142-1.508-.246-.771-.704-.988-1.554-.988-1.058 0-2.129.5-3.433 1.113-.959.454-2.009.429-2.55.454-.213-.4 1.066-1.275 1.912-1.854 1.242-.85 2.525-1.733 2.638-2.838.045-.495-.134-.958-.546-1.379-.325-.337-.692-.508-1.096-.508-1.138 0-2.092 1.392-3.192 3.004-.933 1.367-1.991 2.913-2.996 3.246-.558.187-.704.258-.812.312a1.511 1.511 0 0 1-.288.109c-.941.287-1.562 1.216-1.612 2.421-.046.975.329 2.12 1.258 2.5.092.037.159.075.229.116.225.129.509.292 1.209.421 1.196.183 2.333 1.925 3.333 3.463 1.038 1.6 1.858 2.862 2.933 2.862.375 0 .721-.158 1.03-.475.32-.325.479-.717.458-1.137-.063-1.088-1.283-2.075-2.579-3.125-.634-.513-1.821-1.475-1.817-1.8.017-.038.05-.096.279-.096.604 0 1.638.441 2.634.871 1.204.52 2.175.82 3.079.82.787 0 1.5-.2 1.704-.908.171-.617.108-1.146-.2-1.575-.688-.979-2.396-1.092-4.05-1.2M60.313 85.881c-.842-1.425-1.796-3.033-1.675-4.083.066-.588.062-.746.062-.871 0-.071 0-.125.021-.304.087-.617-.113-1.238-.563-1.754-.945-1.092.338-2.454-1.866-1.475-1.296.575-2.563 1.325-2.971 1.904-.671 1.004-2.733 1.296-4.55 1.554-1.813.254-3.246.458-3.767 1.333-.15.25-.287.675-.075 1.255.242.65.779 1.012 1.509 1.012.929 0 2.112-.579 3.254-1.133.85-.417 1.812-.888 2.396-.888h.004c.271.342-1.163 1.625-1.938 2.313-1.271 1.129-2.475 2.2-2.466 3.279.004.287.095.717.529 1.092.396.337.808.512 1.237.512 1.321 0 2.209-1.621 3.071-3.192.454-.825 1.217-2.216 1.617-2.216l.137.046c.208.287-.304 1.837-.583 2.67-.567 1.705-1.146 3.467-.488 4.513.188.3.567.675 1.309.767.087.012.171.016.254.016a1.57 1.57 0 0 0 1.146-.466c.854-.855.846-2.692.837-4.471-.004-.913-.008-2.438.217-2.663.437 0 .687 1.517.854 2.517.296 1.783.629 3.808 2.25 3.808.221 0 .45-.046.688-.129.608-.208.858-.6.962-.887.383-1.03-.45-2.434-1.412-4.059m-7.632-56.02c-.066-.071-.108-.133-.154-.2-.15-.216-.337-.479-.917-.891-1.008-.671-1.3-2.73-1.554-4.546-.287-2.034-.562-3.954-2.004-3.954-.187 0-.383.041-.583.112-.429.158-.738.45-.896.838-.404 1.016.283 2.429 1.012 3.925.363.737 1.03 2.108.809 2.433-.475 0-1.492-1.138-2.229-1.967-1.13-1.271-2.196-2.471-3.271-2.471-.292 0-.721.096-1.1.534-.421.483-.584.991-.488 1.508.209 1.175 1.713 1.996 3.167 2.796.896.492 2.396 1.312 2.171 1.758 0 0-.059.038-.25.038-.554 0-1.504-.317-2.425-.621-1.159-.388-2.354-.788-3.325-.788-1.521 0-1.875 1.005-1.95 1.605-.067.516.066.975.375 1.325.746.845 2.341.916 4.054.916l.958-.004c.492 0 1.984 0 2.196.2.025.45-1.504.704-2.517.871-1.483.246-3.02.5-3.587 1.458-.25.425-.283.921-.088 1.479.234.684.742 1.059 1.434 1.059.954 0 2.133-.7 3.5-1.509 1.416-.841 3.025-1.804 4.083-1.679.467.054.663.063.875.063.063-.009.121 0 .304.029 1.075.125 2.075-.55 2.592-1.738.437-.991.362-1.983-.192-2.579m41.386-7.638c-.642 0-1.355.075-2.042.146-.625.067-2.838-.591-2.846-.591-.133-.417 1.65-1.125 2.613-1.509 1.583-.625 3.508-.858 3.87-1.875.096-.271.155-.704-.129-1.204-.458-.825-1.087-1-1.537-1-1.096 0-2.704.675-3.85 1.679-.779.688-1.75 1.542-2.225 1.542l-.167-.1c-.1-.342.917-1.625 1.463-2.313 1.112-1.404 1.82-2.62 1.558-3.833-.075-.342-.304-.825-.967-1.167A1.757 1.757 0 0 0 89 11.79c-1.517 0-1.817 1.825-2.533 3.825-.313.863-.825 2.296-1.1 2.433-.43-.129.395-2.466.583-3.475.279-1.479.567-3.008-.138-3.866-.316-.388-.775-.588-1.395-.596-.625 0-.992.279-1.184.512-.696.838-.396 2.438-.05 4.288.309 1.625-.046 4.908-.516 5.85-.267.533-.634 1.983-.167 2.762.55.913 1.542 1.55 2.412 1.55.234 0 .455-.045.655-.129.091-.041.17-.058.245-.079.25-.067.567-.154 1.146-.558.842-.617 3.184.296 5.092.7.996.208 1.933.408 2.679.408.642 0 1.104-.154 1.417-.467.266-.262.396-.62.396-1.058-.009-1.108-.842-1.667-2.475-1.667m9.34 3.458a2.458 2.458 0 1 1 0 4.917 2.458 2.458 0 1 1 0-4.917m8.105 7.645a2.458 2.458 0 1 1 0 4.917 2.458 2.458 0 1 1 0-4.917"/>
  <path fill="#dde1e7" fill-rule="nonzero" d="M70.946 72.131c-1.175-2.412-3.546-3.779-5.95-4.621L58.6 70.194c.233.141.475.275.708.416.842.513 1.925 1.125 2.984 1.996.141.117.37.475.525.713-1.03.396-2.221.846-3.255 1.483-2.216 1.354-9.508 5.233-4.454 6.692.679-.25 1.25-.417 1.813-.517.575-.079 1.071-.162 1.6-.158l3.021-.059c2.045-.07 4.1-.133 6.7-.85.983-.275 2.116-.95 2.616-1.937.471-.938.784-2.067.742-3.121 0-1.079-.317-1.975-.654-2.721"/>
</svg>
