<svg xmlns="http://www.w3.org/2000/svg" xml:space="preserve" fill-rule="evenodd" stroke-linecap="round" stroke-linejoin="round" stroke-miterlimit="10" clip-rule="evenodd" viewBox="0 0 105 112">
  <path fill="none" stroke="#dde1e7" stroke-width="4.17" d="M56.27 16.33a.97.97 0 1 1-1.93 0 .97.97 0 0 1 1.93 0Zm3.63 25.43a21.81 21.81 0 1 0 20.32-29.7c-11.23 0-17.8-5.52-20.34-7.34a10.05 10.05 0 0 0-15.9 8.17s.73 7.78-13.47 13.6c-5.15 2.11-11.8 5.45-15.23 13.35-7.36 16.94 1.03 27.06-10.82 40.9 0 0-4.89 5.69 3.31.68 16.2-10.32 7.95-29.69 18.26-34.6 2.26.39 4.57 4.24 4.57 8.98 0 6.84-3.97 14.2-9.53 25.62-6.43 13.2 0 23.37 0 23.37s-4.02-12.73 10.82-29.95c10.67-12.4 7.76-22.03 7.03-24.02 9.67 25.08-.06 38.54 12.54 58.36-5.58-13.66 1.87-32.93-.7-49.72 0 0 3.56 12.79 15.74 19.35 7.45 4.02 17.14 12.42 18.07 21.58 0 0 1.94-10.32-15.22-28.01-4.72-4.88-16.81-20.42-9.45-30.62"/>
</svg>
