<svg xmlns="http://www.w3.org/2000/svg" xml:space="preserve" fill-rule="evenodd" stroke-linecap="round" stroke-linejoin="round" stroke-miterlimit="10" clip-rule="evenodd" viewBox="0 0 105 117">
  <path fill="none" stroke="#dde1e7" stroke-width="4.17" d="M102.01 28.87c0-6.65-20.98-12.1-33.42-20.27-4.83-3.17-9.84-6.43-16.08-6.43-6.23 0-11.25 3.26-16.07 6.43C24 16.77 3 22.22 3 28.87c0 36 27.95 47.02 43.6 49.23 1.74 21.23 5.9 36.46 5.9 36.46s4.16-15.23 5.9-36.46C74.05 75.9 102 64.87 102 28.87ZM46.61 78.1s-.92 7.69-9.33 13.64M58.41 78.1s.93 7.69 9.33 13.64M35.56 34.77s1.06 15.36 8.52 25.29m25.39-25.3s-1.06 15.37-8.52 25.3M45.05 23.6a.92.92 0 0 1-1.84 0 .92.92 0 1 1 1.84 0Zm16.77 0a.92.92 0 1 1-1.84 0 .92.92 0 0 1 1.84 0Z"/>
</svg>
