<svg xmlns="http://www.w3.org/2000/svg" xml:space="preserve" fill-rule="evenodd" stroke-linecap="round" stroke-linejoin="round" stroke-miterlimit="10" clip-rule="evenodd" viewBox="0 0 115 107">
  <path fill="none" stroke="#dde1e7" stroke-width="4.17" d="M108.272 38.483s-18.609-.333-29.563.054c-4.417.155-8.396.042-9.387-5.229C65.797 14.6 58.888 5.512 58.888 5.512c-1.937-3.991-6.675-3.875-7.654 0 0 0-1.429 18.746-5.771 28.213-1.95 4.258-5.237 4.796-8.946 4.617-19.362-.925-29.762.141-29.762.141-4.108-.291-5.871 4.942-2.363 7.042 0 0 8.313 5.908 25.538 15.287 4.154 2.263 5.692 6.838 3.754 11.171-5.321 11.892-11.367 26.888-11.367 26.888-1.562 3.691 3.046 6.925 6.192 4.35 0 0 13.317-7.817 24.296-18.184 4.375-4.129 7.229-3.045 9.812-.579 11.184 10.692 23.9 18.763 23.9 18.763 3.15 2.575 7.755-.659 6.192-4.35 0 0-5.846-18.475-9.404-27.729-1.646-4.271-1.792-6.58 1.779-9.075 8.625-6.03 25.554-16.542 25.554-16.542 3.504-2.1 1.746-7.338-2.366-7.042Z"/>
  <path fill="#dde1e7" fill-rule="nonzero" d="M40.615 50.615a2.764 2.764 0 1 0 .001 5.523 2.764 2.764 0 0 0-.001-5.523Zm16.9 2.763a4.228 4.228 0 1 0-.005 8.458h.005a4.232 4.232 0 0 0 4.233-4.225 4.233 4.233 0 0 0-4.229-4.233h-.004Zm21.129 31.083a2.76 2.76 0 1 0-.004 5.521h.004a2.757 2.757 0 0 0 2.762-2.758 2.763 2.763 0 0 0-2.762-2.763Zm4.254-38.075a2.76 2.76 0 1 0 0 5.521 2.76 2.76 0 1 0 .004-5.521h-.004Z"/>
</svg>
