<svg xmlns="http://www.w3.org/2000/svg" xml:space="preserve" fill-rule="evenodd" stroke-miterlimit="10" clip-rule="evenodd" viewBox="0 0 135 151">
  <path fill="none" stroke="#dde1e7" stroke-width="4.17" d="M39.53 96.8c0 5.18 5.4 8.03 7.45 11.92 3.09-.27 11.57 1.8 14.14 3.61 4.9-.97 11.22-.79 16.7-.51 2.17-2.86 19.06-12.51 22.86-5.43 1.8 3.62-1.03 8.02-3.08 10.87-6.42 8.54-20.04 12.42-30.32 12.42-29.8 0-46.24-12.17-46.24-32.88 0-2.33.25-4.66.76-6.73m18-19.93c8.73-4.15 19.26-5.96 28.25-7.77 5.4-1.04 10.54-2.07 15.93-3.37 3.6-1.03 9.25-2.33 10.8-6.21.77-2.07-.26-4.66-1.55-6.47-5.65-7-17.47-8.03-25.7-6.21-5.9 1.29-9.8 5.3-15.7 6.6-2.06.5-4.63.5-6.17-1.04A5.3 5.3 0 0 1 44.38 41c.77-5.18 2.35-8.15 6.2-11 1.03-.78 5.14-3.1 7.2-2.85 2.05-2.59 10.79-9.84 23.9-3.37 12.58-1.8 20.03 4.14 22.86 9.84 2.57.52 9.5 4.92 9.5 17.35 0 3.36-1.02 8.8-4.1 10.1-.52 9.06-12.6 16.05-21.07 15.27-4.63 3.63-18.76 5.18-21.33 4.4-5.65 3.63-13.36 4.67-17.98 4.14"/>
  <path fill="#dde1e7" fill-rule="nonzero" d="M80.72 121.16a34.47 34.47 0 0 1-4.91 1.29c-.26-1.55-.76-7.96 0-11.89l5.16.52c-1.08 3.81-.51 8.53-.25 10.08m-16.28-8.79c-1.82 2.84-3.62 8.79-3.88 10.6-1.55 0-3.36-.26-5.17-.52.27-1.81 2.46-8.69 4.66-12.4l4.39 2.32Zm-14.73-2.32c-3.33 2.06-8.78 6.46-9.82 7.75a26.01 26.01 0 0 1-4.39-2.84c1.3-1.3 6.6-6.45 10.6-8.53l3.61 3.62Zm20.41-28.16c-1.8.25-3.61.77-5.16 1.03.72-4.12-1.3-11.37-1.81-12.92 1.55-.25 3.36-.77 5.16-1.03.52 1.55 2.22 7.5 1.81 12.92m21.19-5.43c-1.81.52-3.36.78-5.17 1.3.29-4.04-2.07-10.08-2.84-11.63 1.03-.26 4.65-1.3 5.17-1.55.77 1.55 2.84 8.17 2.84 11.88m18.86-11.88c-1.7-3.21-8.79-5.94-10.6-6.46.78-1.03 2.07-4.13 2.33-4.9 1.8.5 8.91 3.54 11.1 5.93l-2.83 5.43Zm-4.14-29.2c-1.76.52-6.2 4.66-7.23 5.95a44.78 44.78 0 0 0-3.88-3.36c1.04-1.3 6.46-6.2 7.24-6.46 0 0 5.54 3.39 3.87 3.87M85.36 21.95c-1.29 1.55-2.06 10.08-2.06 11.88-1.81-.26-3.36-.52-5.17-.52 0-1.54.47-9.55 2.59-12.4 1.8.26 2.58.78 4.64 1.04M64.19 34.09c-1.8.52-3.36 1.3-4.9 1.81-.78-.78-4.91-7.75-4.91-9.56a26.72 26.72 0 0 1 4.65-2.58c0 1.8 4.13 9.04 5.16 10.33"/>
  <path fill="none" stroke="#dde1e7" stroke-width="4.17" d="M40.67 70s6.72 5.43 8.78 14.73c1.05 1.18-3.95 10.16-9.81 12.14 0 0-10.85-1.03-18.09-5.17-1.24-1.53-2.42-20.56 19.12-21.7Z"/>
</svg>
