<svg xmlns="http://www.w3.org/2000/svg" xmlns:svg="http://www.w3.org/2000/svg" fill-rule="evenodd" clip-rule="evenodd" viewBox="0 0 133.02594 132.85994" xml:space="preserve"><path fill-rule="nonzero" stroke="#000" stroke-width="4.16667" d="M21.538347 6.74733411c-8.07917313 0-14.6250117 6.54583857-14.6250117 14.6250117v94.77507582c0 8.07917313 6.54583857 14.62917837 14.6250117 14.62917837h94.77507582c8.07917313 0 14.62917837-6.55000524 14.62917837-14.62917837V21.37234581c0-8.07917313-6.55000524-14.6250117-14.62917837-14.6250117z"/><path fill="#fff" fill-rule="nonzero" stroke="#000" stroke-width="4.16667" d="M16.708347 2.08333411c-8.07917313 0-14.6250117 6.54583857-14.6250117 14.6250117v94.77507582c0 8.07917313 6.54583857 14.62917837 14.6250117 14.62917837h94.77507582c8.07917313 0 14.62917837-6.55000524 14.62917837-14.62917837V16.70834581c0-8.07917313-6.55000524-14.6250117-14.62917837-14.6250117z"/><path fill-rule="nonzero" d="M101.9605467 104.96306633c-.22916685 0-.48750039-.05000004-1.11666756-.19583349l-1.05000084-.75833394-.42083367-.46250037c-6.47083851-6.93333888-13.26667728-13.85417775-19.84168254-20.55001644l-5.31667092-5.416671C70.65218832 73.97137487 63.2105157 66.45053552 63.2105157 66.45053552c-2.58750207-2.57500206-5.15417079-5.15833746-7.72500618-7.74167286-9.40834086-9.4583409-19.12918197-19.22918205-29.35419015-28.42918941l.18333348-.74583393-1.47916785-.46666704c-.26250021-.24583353-.58750047-.50833374-.97083411-.81666732l-.55000044-1.03750083-.11666676-1.25416767.3750003-1.18333428c.71666724-.84166734.86666736-.96250077 1.84166814-1.48333452l1.26666768-.11666676c.60000048.19166682 1.69583469.6250005 2.38750191 1.23750099 1.99166826 1.77083475 3.92083647 3.71666964 5.78750463 5.60000448l1.47916785 1.48750119c22.55001804 22.60001808 43.58753487 43.91253513 64.31255145 65.14588545l.28333356.29583357c1.02916749 1.05416751 2.05416831 2.10416835 3.06250245 3.17916921l.67916721 1.10833422.16250013 1.06250085-.24583353 1.05416751-.6666672.92083407-.96250077.5833338c-.44166702.07083339-.72916725.11250009-1.0000008.11250009"/></svg>