<svg xmlns="http://www.w3.org/2000/svg" xml:space="preserve" fill-rule="evenodd" stroke-miterlimit="10" clip-rule="evenodd" viewBox="0 0 65 75">
  <path fill="#9aa3ad" stroke="#000" stroke-width="2" d="M63.35 55.16v-36l-31.17-18L1 19.16v36l31.18 18 31.17-18Z"/>
  <circle cx="-4.41" r="4.41" fill="#fff" stroke="#000" stroke-linecap="round" stroke-linejoin="round" transform="matrix(0 -1 -1 0 32.18 8.44)"/>
  <path fill="#fff" fill-rule="nonzero" stroke="#000" stroke-linecap="round" stroke-linejoin="round" d="M37.22 17.25H27.13a5.1 5.1 0 0 0-5.1 5.35l.4 8.02a4.55 4.55 0 0 0 4.55 4.33l1.3 11.92h7.8l1.3-11.92c2.43 0 4.43-1.9 4.54-4.33l.4-8.02a5.1 5.1 0 0 0-5.1-5.35Z"/>
  <circle cx="-5.58" r="5.58" fill="#fff" stroke="#000" stroke-linecap="round" stroke-linejoin="round" stroke-width="1.5" transform="matrix(0 -1 -1 0 20 20.56)"/>
  <path fill="#fff" fill-rule="nonzero" stroke="#000" stroke-linecap="round" stroke-linejoin="round" stroke-width="1.5" d="M26.4 31.73H13.6a6.46 6.46 0 0 0-6.45 6.77l.5 10.16a5.76 5.76 0 0 0 5.75 5.48l.96 8.73L24.97 69l1.62-14.85c3.07 0 5.6-2.41 5.76-5.48l.5-10.16a6.46 6.46 0 0 0-6.46-6.77Z"/>
  <circle cx="-6.79" r="6.79" fill="#fff" stroke="#000" stroke-linecap="round" stroke-linejoin="round" stroke-width="2" transform="matrix(0 -1 -1 0 41.58 24.89)"/>
  <path fill="#fff" fill-rule="nonzero" stroke="#000" stroke-linecap="round" stroke-linejoin="round" stroke-width="2" d="M49.35 38.47H33.8a7.86 7.86 0 0 0-7.85 8.24l.6 12.35a7.01 7.01 0 0 0 7.01 6.67l.68 6.23 22.35-12.9.6-12.35a7.86 7.86 0 0 0-7.84-8.24Z"/>
</svg>
