<svg xmlns="http://www.w3.org/2000/svg" xml:space="preserve" fill-rule="evenodd" clip-rule="evenodd" viewBox="0 0 171.64 194.07">
  <g fill-rule="nonzero">
    <path d="m83.18 139.4-1.68-.13c-25.62-1.98-45.7-21.63-45.7-44.73 0-24.76 22.44-44.9 50.03-44.9 27.57 0 50.02 20.14 50.02 44.9 0 17.5-9.23 34.28-26.68 48.57a119.63 119.63 0 0 1-26.42 16.38l-3.78 1.6zm1.7 14.6 2.78-1.5a121.2 121.2 0 0 0 19-12.67c16.65-13.68 25.1-28.94 25.1-45.35 0-22.47-20.61-40.76-45.93-40.76-25.33 0-45.92 18.3-45.92 40.76 0 22.48 20.6 40.77 45.92 40.77h2.68z"/>
    <path d="M80.34 102.42c0-10.42 11.65-11.93 11.65-19.8 0-3.85-3.3-6.8-7.81-6.8-4.32 0-7.81 2.88-7.81 2.88l-3.7-4.73s4.52-4.38 11.99-4.38c7.74 0 14.32 4.93 14.32 12.54 0 11.3-12.13 12.47-12.13 20.7v2.8h-6.5zm-.14 9.87H87v6.65h-6.8z"/>
  </g>
</svg>
