<svg xmlns="http://www.w3.org/2000/svg" xml:space="preserve" fill-rule="evenodd" clip-rule="evenodd" viewBox="0 0 171.63 194.06">
  <g transform="translate(-17.18 -18.07)">
    <clipPath id="a">
      <path d="M50.38 69.11h105.24v91.97H50.38Z" clip-rule="nonzero"/>
    </clipPath>
    <g clip-path="url(#a)">
      <path fill="none" stroke="#000" stroke-miterlimit="10" stroke-width="4.17" d="M104.31 71.19h-36.9m84.94 21.47a9.88 9.88 0 1 1-19.7 1.45 9.88 9.88 0 0 1 19.7-1.45zM95.8 159.18l25.67-11.51a4.95 4.95 0 0 0 2.42-7.44l-10.43-15.4 8.32-8.63s4.64 8.92 7.06 8.92h13.04c7 0 10.58-7.1 10.58-7.1l-18.34-2.78-9.74-21.87s-9.45-8-13.7-10.83H83.42c1.05 5.68 4.47 7.53 9.39 8.28l13.33 1.94 5.71 7.8-11.82 12.26-.66.85c-5.98 7.5-2.1 13.76 3.78 20.37l6.74 6.97L91.7 151.6m1.26-49.19H73.09m-5.68 0h-5.68m-5.67 0h-5.68m11.35 51.1 32.74-16.59m-3.3-11.8-35.11 22.7"/>
    </g>
  </g>
</svg>
