<svg xmlns="http://www.w3.org/2000/svg" xml:space="preserve" fill-rule="evenodd" clip-rule="evenodd" viewBox="0 0 171.64 194.06">
  <g fill="none" stroke="#000" stroke-linejoin="round" stroke-miterlimit="10" stroke-width="4.17">
    <path stroke-linecap="round" d="M76.27 115.23c-16.65-1.44-29.62-7.36-29.62-14.8 0-2.3 1.13-4.1 3.3-5.9m49.53 53.38a82.58 82.58 0 0 1-15.51 1.45c-17.15 0-32.7-5.17-44.19-13.59m76.8-44.9c4.4 2.5 7.2 6.42 7.2 9.7 0 6.12-11.02 12.01-23.38 12.92m19.78 10.44c11.32-5.06 17.98-12.63 17.98-20.87 0-9-8.41-15.84-21.58-20.89m-26.2 48.57c-1.5.06-3.03.1-4.56.1-28.9 0-52.34-11.72-52.34-26.18 0-10.37 12.08-19.34 29.59-23.57"/>
    <path d="m101.75 44.68 5.4 12.8 12.8 5.4-12.8 5.4-5.4 12.8-5.4-12.8-12.8-5.4 12.8-5.4zM85.82 78.81l5.4 12.8 12.8 5.4-12.8 5.41-5.4 12.8-5.4-12.8-12.8-5.4 12.8-5.4zm25.04 43.24 4.55 9.1 9.1 4.56-9.1 4.55-4.55 9.1-4.56-9.1-9.1-4.55 9.1-4.56z"/>
  </g>
</svg>
