<svg xmlns="http://www.w3.org/2000/svg" xml:space="preserve" fill-rule="evenodd" stroke-miterlimit="10" clip-rule="evenodd" viewBox="0 0 69 61">
  <path fill-rule="nonzero" stroke="#fff" stroke-width="1.5" d="M50.02.75H18.94c-.94 0-1.82.5-2.3 1.33L1.1 28.99a2.66 2.66 0 0 0 0 2.66l15.54 26.91a2.65 2.65 0 0 0 2.3 1.33h31.08c.95 0 1.83-.5 2.3-1.33l15.54-26.91c.48-.82.48-1.84 0-2.66L52.32 2.08a2.66 2.66 0 0 0-2.3-1.33Z"/>
  <circle cx="-2.33" cy="-.01" r="2.33" fill="none" stroke="#fff" stroke-linecap="round" stroke-linejoin="round" stroke-width="1.5" transform="matrix(-1 0 0 1 44.17 12.41)"/>
  <path fill="none" stroke="#fff" stroke-linecap="round" stroke-linejoin="round" stroke-width="1.5" d="M52.75 18.61v5.27c0 .81-.65 1.46-1.46 1.46-.81 0-1.46-.65-1.46-1.46v-1.07h-.01a3.36 3.36 0 0 0-3.36-3.36h-9.01a2.94 2.94 0 0 0-.67-2.69l-.01-.02a3.01 3.01 0 0 0-2.24-1.04h-.01l-.04-.02h5.49a2.68 2.68 0 0 0 5.36 0h4.49a2.93 2.93 0 0 1 2.93 2.93Z"/>
  <path fill="none" stroke="#fff" stroke-linecap="round" stroke-linejoin="round" stroke-width="1.5" d="M49.83 22.81v12.28a1.66 1.66 0 0 1-3.33 0v-5.87a1.68 1.68 0 0 0 3.32-.37v-6.04Z"/>
  <circle cx="-2.33" cy="-.01" r="2.33" fill="none" stroke="#fff" stroke-linecap="round" stroke-linejoin="round" stroke-width="1.5" transform="matrix(-1 0 0 1 20.13 12.41)"/>
  <path fill="none" stroke="#fff" stroke-linecap="round" stroke-linejoin="round" stroke-width="1.5" d="m34.48 15.68-.05.02a3.06 3.06 0 0 0-2.92 3.75h-9a3.36 3.36 0 0 0-3.37 3.36v1.07c0 .81-.65 1.46-1.46 1.46-.81 0-1.46-.65-1.46-1.46v-5.26a2.94 2.94 0 0 1 2.93-2.94h4.48a2.68 2.68 0 0 0 5.36 0h5.49ZM22.47 29.19v5.9a1.66 1.66 0 0 1-3.33 0v-6.24a1.68 1.68 0 0 0 3.33.34Z"/>
  <circle cx="-2.33" cy="-.01" r="2.33" fill="none" stroke="#fff" stroke-linecap="round" stroke-linejoin="round" stroke-width="1.5" transform="matrix(-1 0 0 1 32.15 12.41)"/>
  <path fill="none" stroke="#fff" stroke-linecap="round" stroke-linejoin="round" stroke-width="1.5" d="M38.83 33.75v-6.2m-8.7 6.2v-6.2m4.35 20.85V37.94m3.05-19.19a3.06 3.06 0 1 1-3.1-3.05h.1c.89.01 1.69.41 2.24 1.04v.02c.49.53.76 1.23.76 1.99Zm1.3 15v-6.2m-8.7 6.2v-6.2m4.35 20.85V37.94"/>
  <circle cx="-2.68" r="2.68" fill="none" stroke="#fff" stroke-linecap="round" stroke-linejoin="round" stroke-width="1.5" transform="matrix(-1 0 0 1 39.97 15.68)"/>
  <path fill="none" stroke="#fff" stroke-linecap="round" stroke-linejoin="round" stroke-width="1.5" d="M46.46 19.45h-9.01a3.06 3.06 0 0 1-5.94 0h-9a3.36 3.36 0 0 0-3.37 3.36v6.04a1.68 1.68 0 0 0 3.36 0v12.86a1.9 1.9 0 1 0 3.8 0V26.87a3.83 3.83 0 0 1 3.84-3.83h8.68a3.83 3.83 0 0 1 3.83 3.82v14.85a1.9 1.9 0 1 0 3.8 0V28.85a1.68 1.68 0 0 0 3.36 0v-6.04a3.36 3.36 0 0 0-3.35-3.36Zm0 9.4v-5.44"/>
  <path fill="none" stroke="#fff" stroke-linecap="round" stroke-linejoin="round" stroke-width="1.5" d="M42.65 33.75v7.96a1.92 1.92 0 0 1-3.26 1.35 1.95 1.95 0 0 1-.56-1.35v-7.96a1.9 1.9 0 1 0 3.82 0Zm-3.82 0v-4.9"/>
  <circle cx="-2.68" r="2.68" fill="none" stroke="#fff" stroke-linecap="round" stroke-linejoin="round" stroke-width="1.5" transform="matrix(-1 0 0 1 23.63 15.68)"/>
  <path fill="none" stroke="#fff" stroke-linecap="round" stroke-linejoin="round" stroke-width="1.5" d="M42.65 26.86v6.89a1.92 1.92 0 0 1-3.26 1.35 1.9 1.9 0 0 1-.56-1.35V48.4c0 .6-.24 1.14-.64 1.53a2.17 2.17 0 0 1-3.71-1.53 2.17 2.17 0 0 1-3.71 1.53c-.4-.39-.64-.93-.64-1.53V33.75a1.9 1.9 0 1 1-3.82 0v-6.88a3.83 3.83 0 0 1 3.83-3.83h8.68a3.83 3.83 0 0 1 3.83 3.82Z"/>
  <path fill="none" stroke="#fff" stroke-linecap="round" stroke-linejoin="round" stroke-width="1.5" d="M30.13 33.75v7.96c0 .52-.22 1-.56 1.35a1.92 1.92 0 0 1-3.26-1.35v-7.96a1.92 1.92 0 0 0 3.26 1.35c.35-.35.56-.83.56-1.35Zm0 0v-4.9m-7.63 0v-5.44"/>
</svg>
