<svg xmlns="http://www.w3.org/2000/svg" xml:space="preserve" fill-rule="evenodd" stroke-miterlimit="10" clip-rule="evenodd" viewBox="0 0 68.97 60.64">
  <path fill-rule="nonzero" stroke="#fff" stroke-width="1.5" d="M50.02.75H18.94c-.94 0-1.82.5-2.3 1.33L1.12 28.99a2.66 2.66 0 0 0 0 2.66l15.54 26.91a2.65 2.65 0 0 0 2.3 1.33h31.07c.95 0 1.83-.5 2.3-1.33l15.54-26.91c.48-.82.48-1.84 0-2.66L52.32 2.08a2.66 2.66 0 0 0-2.3-1.33Z"/>
  <path fill="none" stroke="#fff" stroke-linecap="round" stroke-linejoin="round" stroke-width="1.5" d="M24.67 9.98v4.31m12.1-4.31v4.31"/>
  <circle cx="-3.45" r="3.45" fill="none" stroke="#fff" stroke-linecap="round" stroke-linejoin="round" stroke-width="1.5" transform="matrix(0 -1 -1 0 48.72 30.96)"/>
  <path fill="none" stroke="#fff" stroke-linecap="round" stroke-linejoin="round" stroke-width="1.5" d="M47.93 42.73a8.69 8.69 0 0 1-17.38 0m0-6.96v6.95m17.38-4.86v4.87m-23.55-30.6c-.73.05-2.51.25-3.87 1.6-.85.86-1.37 2.02-1.6 3.87-.07.63-1.35 12.74 6.6 16.9 1 .52 2.66 1.19 5.04 1.27m6.51-23.64c.73.05 2.51.25 3.87 1.6.85.86 1.37 2.02 1.6 3.87.07.63 1.35 12.74-6.6 16.9-1 .52-2.66 1.19-5.04 1.27"/>
</svg>
