<svg xmlns="http://www.w3.org/2000/svg" xml:space="preserve" fill-rule="evenodd" stroke-miterlimit="10" clip-rule="evenodd" viewBox="0 0 182.504 210.736">
  <g stroke="#231f20" transform="translate(-26.395 -26.444)">
    <path fill="#b7c2cf" fill-rule="nonzero" stroke-width="5.833" d="M205.983 182.812v-102l-88.333-51-88.338 51v102l88.338 51z"/>
    <circle cx="-131.845" cy="-117.733" r="65.167" fill="#231f20" fill-opacity=".302" stroke-width="5.833" transform="matrix(0 -1 -1 0 0 0)"/>
    <g fill="none" stroke-width="4.375">
      <ellipse cx="-82.975" cy="-117.733" stroke-linecap="round" stroke-linejoin="round" rx="16.296" ry="32.583" transform="matrix(0 -1 -1 0 0 0)"/>
      <path d="M182.891 131.804c0 18.017-29.17 32.617-65.158 32.617-35.984 0-65.159-14.6-65.159-32.617"/>
      <path d="M175.62 101.888c.025.296.046.658.037 1.075-.237 14.3-31.02 30.083-58.033 30.042-36.867-.055-57.817-29.567-57.817-30.042 0-.404.021-.804.021-.804.009-.105.013-.196.021-.275"/>
    </g>
    <path fill="#fff" fill-rule="nonzero" stroke-linejoin="round" stroke-width="4.375" d="M106.641 135.004v-12.75l-11.333-6.375-11.334 6.375v12.75l11.334 6.375z"/>
  </g>
</svg>
