<svg xmlns="http://www.w3.org/2000/svg" viewBox="0 0 15.409 14.086">
  <path d="m29.12 0-4.854 2.803v5.61l3.912 2.257-.356 6.707-13.426 7.746v15.508L8.77 44.293l-3.916-2.262L0 44.834v5.603l4.854 2.803 4.855-2.803V45.91l5.98-3.04 13.434 7.751 13.422-7.752 5.98 3.043v4.526l4.86 2.802 4.855-2.803v-5.603l-4.855-2.803-3.92 2.262-5.63-3.664V25.123l-.663-.385-12.768-7.37-.353-6.692 3.924-2.264v-5.61zm-.005 19.705 12.055 6.961v13.922L38.72 42l.061-1.234a4.85 4.85 0 0 0-4.843-5.088h-9.604a4.85 4.85 0 0 0-4.844 5.088l.063 1.254-2.492-1.44V26.666Zm4.213 10.785a4.193 4.193 0 0 1-8.385 0 4.193 4.193 0 0 1 8.385 0" transform="scale(.26458)"/>
</svg>
